font.ufo
<glyph name="question" format="2">
	<unicode hex="003F"/>
	<advance width="464"/>
	<outline>
		<contour>
			<point x="120" y="212" type="curve"/>
			<point x="177" y="205" type="line"/>
			<point x="186" y="237"/>
			<point x="204" y="260"/>
			<point x="280" y="292" type="curve" smooth="yes"/>
			<point x="299" y="300"/>
			<point x="317" y="308"/>
			<point x="336" y="316" type="curve" smooth="yes"/>
			<point x="448" y="364"/>
			<point x="506" y="430"/>
			<point x="506" y="516" type="curve" smooth="yes"/>
			<point x="506" y="627"/>
			<point x="416" y="668"/>
			<point x="298" y="668" type="curve" smooth="yes"/>
			<point x="181" y="668"/>
			<point x="132" y="630"/>
			<point x="106" y="552" type="curve"/>
			<point x="114" y="516"/>
			<point x="138" y="492"/>
			<point x="182" y="492" type="curve" smooth="yes"/>
			<point x="226" y="492"/>
			<point x="257" y="513"/>
			<point x="270" y="560" type="curve" smooth="yes"/>
			<point x="294" y="648" type="line"/>
			<point x="210" y="616" type="line"/>
			<point x="226" y="620"/>
			<point x="250" y="624"/>
			<point x="282" y="624" type="curve" smooth="yes"/>
			<point x="354" y="624"/>
			<point x="382" y="606"/>
			<point x="382" y="562" type="curve" smooth="yes"/>
			<point x="382" y="518"/>
			<point x="356" y="491"/>
			<point x="292" y="462" type="curve" smooth="yes"/>
			<point x="269" y="452"/>
			<point x="245" y="439"/>
			<point x="222" y="429" type="curve" smooth="yes"/>
			<point x="138" y="392"/>
			<point x="110" y="333"/>
		</contour>
		<contour>
			<point x="38" y="70" type="curve" smooth="yes"/>
			<point x="38" y="24"/>
			<point x="70" y="-12"/>
			<point x="124" y="-12" type="curve" smooth="yes"/>
			<point x="182" y="-12"/>
			<point x="226" y="32"/>
			<point x="226" y="90" type="curve" smooth="yes"/>
			<point x="226" y="136"/>
			<point x="194" y="172"/>
			<point x="140" y="172" type="curve" smooth="yes"/>
			<point x="82" y="172"/>
			<point x="38" y="128"/>
		</contour>
	</outline>
</glyph>
<glyph name="A" format="2">
	<unicode hex="0041"/>
	<advance width="742"/>
	<outline>
		<contour>
			<point x="-18" y="0" type="line"/>
			<point x="212" y="0" type="line"/>
			<point x="226" y="76" type="line"/>
			<point x="134" y="76" type="line"/>
			<point x="78" y="76" type="line"/>
			<point x="-4" y="76" type="line"/>
		</contour>
		<contour>
			<point x="22" y="0" type="line"/>
			<point x="110" y="0" type="line"/>
			<point x="302" y="376" type="line"/>
			<point x="362" y="555" type="line"/>
			<point x="378" y="555" type="line"/>
			<point x="446" y="0" type="line"/>
			<point x="648" y="0" type="line"/>
			<point x="548" y="652" type="line"/>
			<point x="372" y="652" type="line"/>
		</contour>
		<contour>
			<point x="186" y="172" type="line"/>
			<point x="478" y="172" type="line"/>
			<point x="478" y="240" type="line"/>
			<point x="186" y="240" type="line"/>
		</contour>
		<contour>
			<point x="342" y="0" type="line"/>
			<point x="694" y="0" type="line"/>
			<point x="708" y="76" type="line"/>
			<point x="584" y="76" type="line"/>
			<point x="482" y="76" type="line"/>
			<point x="356" y="76" type="line"/>
		</contour>
	</outline>
	<anchor name="aboveUC" x="448" y="672"/>
	<anchor name="belowLC" x="282" y="-20"/>
	<anchor name="ogonek" x="539" y="0"/>
</glyph>
<glyph name="G" format="2">
	<unicode hex="0047"/>
	<advance width="709"/>
	<outline>
		<contour>
			<point x="58" y="261" type="curve" smooth="yes"/>
			<point x="58" y="90"/>
			<point x="159" y="-16"/>
			<point x="394" y="-16" type="curve" smooth="yes"/>
			<point x="498" y="-16"/>
			<point x="562" y="8"/>
			<point x="606" y="27" type="curve"/>
			<point x="662" y="336" type="line"/>
			<point x="482" y="336" type="line"/>
			<point x="470" y="255"/>
			<point x="458" y="173"/>
			<point x="446" y="92" type="curve" smooth="yes"/>
			<point x="434" y="12" type="line"/>
			<point x="522" y="68" type="line"/>
			<point x="506" y="60"/>
			<point x="474" y="52"/>
			<point x="426" y="52" type="curve" smooth="yes"/>
			<point x="293" y="52"/>
			<point x="252" y="134"/>
			<point x="252" y="274" type="curve" smooth="yes"/>
			<point x="252" y="433"/>
			<point x="339" y="592"/>
			<point x="498" y="592" type="curve" smooth="yes"/>
			<point x="572" y="592"/>
			<point x="605" y="584"/>
			<point x="638" y="568" type="curve"/>
			<point x="566" y="616" type="line"/>
			<point x="590" y="452" type="line"/>
			<point x="670" y="452" type="line"/>
			<point x="694" y="624" type="line"/>
			<point x="653" y="644"/>
			<point x="580" y="668"/>
			<point x="482" y="668" type="curve" smooth="yes"/>
			<point x="205" y="668"/>
			<point x="58" y="492"/>
		</contour>
		<contour>
			<point x="378" y="260" type="line"/>
			<point x="522" y="260" type="line"/>
			<point x="598" y="260" type="line"/>
			<point x="708" y="260" type="line"/>
			<point x="722" y="336" type="line"/>
			<point x="392" y="336" type="line"/>
		</contour>
	</outline>
	<anchor name="aboveUC" x="466" y="672"/>
	<anchor name="belowLC" x="395" y="-20"/>
</glyph>
<glyph name="J" format="2">
	<unicode hex="004A"/>
	<advance width="400"/>
	<outline>
		<contour>
			<point x="-116" y="-91" type="curve"/>
			<point x="-101" y="-136"/>
			<point x="-60" y="-154"/>
			<point x="9" y="-154" type="curve" smooth="yes"/>
			<point x="111" y="-154"/>
			<point x="182" y="-94"/>
			<point x="228" y="-23" type="curve" smooth="yes"/>
			<point x="269" y="40"/>
			<point x="301" y="138"/>
			<point x="328" y="289" type="curve" smooth="yes"/>
			<point x="394" y="652" type="line"/>
			<point x="198" y="652" type="line"/>
			<point x="180" y="552"/>
			<point x="162" y="453"/>
			<point x="144" y="353" type="curve" smooth="yes"/>
			<point x="116" y="201"/>
			<point x="111" y="121"/>
			<point x="102" y="41" type="curve" smooth="yes"/>
			<point x="96" y="-14"/>
			<point x="87" y="-68"/>
			<point x="78" y="-123" type="curve"/>
			<point x="92" y="-102" type="line"/>
			<point x="24" y="-102" type="line"/>
			<point x="69" y="-123" type="line"/>
			<point x="48" y="-43"/>
			<point x="16" y="-15"/>
			<point x="-38" y="-15" type="curve" smooth="yes"/>
			<point x="-88" y="-15"/>
			<point x="-112" y="-55"/>
		</contour>
		<contour>
			<point x="94" y="576" type="line"/>
			<point x="234" y="576" type="line"/>
			<point x="330" y="576" type="line"/>
			<point x="456" y="576" type="line"/>
			<point x="470" y="652" type="line"/>
			<point x="108" y="652" type="line"/>
		</contour>
	</outline>
	<anchor name="aboveUC" x="296" y="672"/>
	<anchor name="belowLC" x="78" y="-174"/>
</glyph>
<glyph name="W" format="2">
	<unicode hex="0057"/>
	<advance width="1036"/>
	<outline>
		<contour>
			<point x="219" y="576" type="line"/>
			<point x="302" y="576" type="line"/>
			<point x="415" y="576" type="line"/>
			<point x="431" y="652" type="line"/>
			<point x="106" y="652" type="line"/>
			<point x="90" y="576" type="line"/>
		</contour>
		<contour>
			<point x="214" y="0" type="line"/>
			<point x="407" y="0" type="line"/>
			<point x="517" y="297" type="line"/>
			<point x="564" y="494" type="line"/>
			<point x="578" y="494" type="line"/>
			<point x="629" y="0" type="line"/>
			<point x="812" y="0" type="line"/>
			<point x="1057" y="652" type="line"/>
			<point x="976" y="652" type="line"/>
			<point x="868" y="335" type="line"/>
			<point x="811" y="89" type="line"/>
			<point x="798" y="89" type="line"/>
			<point x="746" y="652" type="line"/>
			<point x="574" y="652" type="line"/>
			<point x="463" y="334" type="line"/>
			<point x="394" y="89" type="line"/>
			<point x="380" y="89" type="line"/>
			<point x="355" y="652" type="line"/>
			<point x="151" y="652" type="line"/>
		</contour>
		<contour>
			<point x="614" y="576" type="line"/>
			<point x="696" y="576" type="line"/>
			<point x="812" y="576" type="line"/>
			<point x="828" y="652" type="line"/>
			<point x="509" y="652" type="line"/>
			<point x="493" y="576" type="line"/>
		</contour>
		<contour>
			<point x="945" y="576" type="line"/>
			<point x="1001" y="576" type="line"/>
			<point x="1082" y="576" type="line"/>
			<point x="1098" y="652" type="line"/>
			<point x="898" y="652" type="line"/>
			<point x="882" y="576" type="line"/>
		</contour>
	</outline>
	<anchor name="aboveUC" x="661" y="672"/>
	<anchor name="belowLC" x="488" y="-20"/>
</glyph>
<glyph name="X" format="2">
	<unicode hex="0058"/>
	<advance width="666"/>
	<outline>
		<contour>
			<point x="-8" y="0" type="line"/>
			<point x="214" y="0" type="line"/>
			<point x="228" y="76" type="line"/>
			<point x="132" y="76" type="line"/>
			<point x="104" y="76" type="line"/>
			<point x="6" y="76" type="line"/>
		</contour>
		<contour>
			<point x="4" y="0" type="line"/>
			<point x="102" y="0" type="line"/>
			<point x="220" y="167" type="line"/>
			<point x="278" y="262" type="line"/>
			<point x="364" y="262" type="line"/>
			<point x="296" y="374" type="line"/>
		</contour>
		<contour>
			<point x="96" y="576" type="line"/>
			<point x="212" y="576" type="line"/>
			<point x="314" y="576" type="line"/>
			<point x="428" y="576" type="line"/>
			<point x="442" y="652" type="line"/>
			<point x="110" y="652" type="line"/>
		</contour>
		<contour>
			<point x="284" y="0" type="line"/>
			<point x="620" y="0" type="line"/>
			<point x="634" y="76" type="line"/>
			<point x="518" y="76" type="line"/>
			<point x="416" y="76" type="line"/>
			<point x="298" y="76" type="line"/>
		</contour>
		<contour>
			<point x="446" y="306" type="line"/>
			<point x="718" y="652" type="line"/>
			<point x="620" y="652" type="line"/>
			<point x="512" y="501" type="line"/>
			<point x="448" y="398" type="line"/>
			<point x="384" y="398" type="line"/>
		</contour>
		<contour>
			<point x="498" y="576" type="line"/>
			<point x="587" y="578" type="line"/>
			<point x="616" y="578" type="line"/>
			<point x="716" y="576" type="line"/>
			<point x="730" y="652" type="line"/>
			<point x="512" y="652" type="line"/>
		</contour>
		<contour>
			<point x="396" y="0" type="line"/>
			<point x="598" y="0" type="line"/>
			<point x="334" y="652" type="line"/>
			<point x="132" y="652" type="line"/>
		</contour>
	</outline>
	<anchor name="aboveUC" x="472" y="672"/>
	<anchor name="belowLC" x="256" y="-20"/>
</glyph>
<glyph name="Z" format="2">
	<unicode hex="005A"/>
	<advance width="610"/>
	<outline>
		<contour>
			<point x="8" y="0" type="line"/>
			<point x="248" y="0" type="line"/>
			<point x="248" y="91" type="line"/>
			<point x="641" y="584" type="line"/>
			<point x="656" y="652" type="line"/>
			<point x="418" y="652" type="line"/>
			<point x="418" y="562" type="line"/>
			<point x="23" y="68" type="line"/>
		</contour>
		<contour>
			<point x="84" y="460" type="line"/>
			<point x="168" y="460" type="line"/>
			<point x="248" y="620" type="line"/>
			<point x="148" y="586" type="line"/>
			<point x="552" y="586" type="line"/>
			<point x="552" y="652" type="line"/>
			<point x="120" y="652" type="line"/>
		</contour>
		<contour>
			<point x="112" y="0" type="line"/>
			<point x="552" y="0" type="line"/>
			<point x="588" y="192" type="line"/>
			<point x="504" y="192" type="line"/>
			<point x="424" y="32" type="line"/>
			<point x="524" y="66" type="line"/>
			<point x="112" y="66" type="line"/>
		</contour>
	</outline>
	<anchor name="aboveUC" x="396" y="672"/>
	<anchor name="belowLC" x="285" y="-20"/>
</glyph>
<glyph name="e" format="2">
	<unicode hex="0065"/>
	<advance width="556"/>
	<outline>
		<contour>
			<point x="260" y="-16" type="curve" smooth="yes"/>
			<point x="400" y="-16"/>
			<point x="473" y="84"/>
			<point x="512" y="144" type="curve"/>
			<point x="452" y="188" type="line"/>
			<point x="408" y="136"/>
			<point x="376" y="104"/>
			<point x="324" y="104" type="curve" smooth="yes"/>
			<point x="264" y="104"/>
			<point x="224" y="136"/>
			<point x="224" y="224" type="curve" smooth="yes"/>
			<point x="224" y="344"/>
			<point x="284" y="464"/>
			<point x="348" y="464" type="curve" smooth="yes"/>
			<point x="372" y="464"/>
			<point x="384" y="448"/>
			<point x="384" y="424" type="curve" smooth="yes"/>
			<point x="384" y="360"/>
			<point x="336" y="276"/>
			<point x="136" y="232" type="curve"/>
			<point x="136" y="192" type="line"/>
			<point x="392" y="228"/>
			<point x="532" y="304"/>
			<point x="532" y="416" type="curve" smooth="yes"/>
			<point x="532" y="488"/>
			<point x="468" y="532"/>
			<point x="364" y="532" type="curve" smooth="yes"/>
			<point x="167" y="532"/>
			<point x="40" y="365"/>
			<point x="40" y="190" type="curve" smooth="yes"/>
			<point x="40" y="61"/>
			<point x="111" y="-16"/>
		</contour>
	</outline>
	<anchor name="aboveLC" x="380" y="536"/>
	<anchor name="belowLC" x="259" y="-20"/>
	<anchor name="ogonek" x="311" y="0"/>
</glyph>
<glyph name="g" format="2">
	<unicode hex="0067"/>
	<advance width="655"/>
	<outline>
		<contour>
			<point x="223" y="-232" type="curve" smooth="yes"/>
			<point x="407" y="-232"/>
			<point x="558" y="-167"/>
			<point x="558" y="-34" type="curve" smooth="yes"/>
			<point x="558" y="44"/>
			<point x="492" y="98"/>
			<point x="381" y="108" type="curve" smooth="yes"/>
			<point x="243" y="120" type="line" smooth="yes"/>
			<point x="204" y="123"/>
			<point x="186" y="136"/>
			<point x="186" y="156" type="curve" smooth="yes"/>
			<point x="186" y="176"/>
			<point x="193" y="192"/>
			<point x="199" y="208" type="curve"/>
			<point x="155" y="208" type="line"/>
			<point x="146" y="168" type="line"/>
			<point x="74" y="168"/>
			<point x="38" y="137"/>
			<point x="38" y="89" type="curve" smooth="yes"/>
			<point x="38" y="41"/>
			<point x="72" y="8"/>
			<point x="149" y="2" type="curve"/>
			<point x="143" y="-35" type="line"/>
			<point x="148" y="-36"/>
			<point x="151" y="-37"/>
			<point x="156" y="-37" type="curve" smooth="yes"/>
			<point x="341" y="-54" type="line" smooth="yes"/>
			<point x="377" y="-57"/>
			<point x="397" y="-68"/>
			<point x="397" y="-92" type="curve" smooth="yes"/>
			<point x="397" y="-132"/>
			<point x="348" y="-164"/>
			<point x="263" y="-164" type="curve" smooth="yes"/>
			<point x="182" y="-164"/>
			<point x="122" y="-136"/>
			<point x="122" y="-96" type="curve" smooth="yes"/>
			<point x="122" y="-66"/>
			<point x="140" y="-48"/>
			<point x="168" y="-30" type="curve"/>
			<point x="155" y="-16" type="line"/>
			<point x="10" y="-24"/>
			<point x="-42" y="-60"/>
			<point x="-42" y="-116" type="curve" smooth="yes"/>
			<point x="-42" y="-184"/>
			<point x="62" y="-232"/>
		</contour>
		<contour>
			<point x="275" y="172" type="curve" smooth="yes"/>
			<point x="443" y="172"/>
			<point x="506" y="242"/>
			<point x="530" y="328" type="curve" smooth="yes"/>
			<point x="543" y="376"/>
			<point x="554" y="400"/>
			<point x="562" y="452" type="curve"/>
			<point x="537" y="397" type="line"/>
			<point x="639" y="397"/>
			<point x="674" y="435"/>
			<point x="674" y="496" type="curve" smooth="yes"/>
			<point x="674" y="511"/>
			<point x="671" y="531"/>
			<point x="666" y="541" type="curve"/>
			<point x="660" y="546"/>
			<point x="647" y="551"/>
			<point x="625" y="551" type="curve" smooth="yes"/>
			<point x="549" y="551"/>
			<point x="511" y="500"/>
			<point x="506" y="404" type="curve"/>
			<point x="488" y="404" type="line"/>
			<point x="478" y="477"/>
			<point x="432" y="532"/>
			<point x="314" y="532" type="curve" smooth="yes"/>
			<point x="173" y="532"/>
			<point x="75" y="440"/>
			<point x="75" y="327" type="curve" smooth="yes"/>
			<point x="75" y="228"/>
			<point x="152" y="172"/>
		</contour>
		<contour>
			<point x="307" y="232" type="curve" smooth="yes"/>
			<point x="261" y="232"/>
			<point x="243" y="294"/>
			<point x="243" y="348" type="curve" smooth="yes"/>
			<point x="243" y="426"/>
			<point x="269" y="475"/>
			<point x="304" y="475" type="curve" smooth="yes"/>
			<point x="341" y="475"/>
			<point x="366" y="433"/>
			<point x="366" y="362" type="curve" smooth="yes"/>
			<point x="366" y="254"/>
			<point x="332" y="232"/>
		</contour>
	</outline>
	<anchor name="aboveLC" x="329" y="536"/>
	<anchor name="belowLC" x="209" y="-240"/>
</glyph>
<glyph name="j" format="2">
	<unicode hex="006A"/>
	<advance width="346"/>
	<outline>
		<contour>
			<point x="-48" y="-232" type="line"/>
			<point x="35" y="-217"/>
			<point x="93" y="-187"/>
			<point x="140" y="-140" type="curve" smooth="yes"/>
			<point x="188" y="-92"/>
			<point x="220" y="-28"/>
			<point x="240" y="72" type="curve" smooth="yes"/>
			<point x="328" y="516" type="line"/>
			<point x="244" y="526" type="line"/>
			<point x="32" y="460" type="line"/>
			<point x="18" y="392" type="line"/>
			<point x="168" y="392" type="line"/>
			<point x="112" y="424" type="line"/>
			<point x="44" y="24" type="line" smooth="yes"/>
			<point x="36" y="-24"/>
			<point x="28" y="-56"/>
			<point x="12" y="-88" type="curve" smooth="yes"/>
			<point x="-4" y="-119"/>
			<point x="-22" y="-154"/>
			<point x="-72" y="-172" type="curve"/>
		</contour>
		<contour>
			<point x="248" y="579" type="curve" smooth="yes"/>
			<point x="312" y="579"/>
			<point x="354" y="629"/>
			<point x="354" y="682" type="curve" smooth="yes"/>
			<point x="354" y="732"/>
			<point x="318" y="766"/>
			<point x="264" y="766" type="curve" smooth="yes"/>
			<point x="200" y="766"/>
			<point x="158" y="716"/>
			<point x="158" y="663" type="curve" smooth="yes"/>
			<point x="158" y="613"/>
			<point x="194" y="579"/>
		</contour>
	</outline>
	<anchor name="aboveLC" x="268" y="766"/>
	<anchor name="belowLC" x="36" y="-240"/>
</glyph>
<glyph name="k" format="2">
	<unicode hex="006B"/>
	<advance width="636"/>
	<outline>
		<contour>
			<point x="32" y="0" type="line"/>
			<point x="80" y="-16" type="line"/>
			<point x="228" y="0" type="line"/>
			<point x="242" y="63"/>
			<point x="259" y="125"/>
			<point x="272" y="188" type="curve" smooth="yes"/>
			<point x="382" y="710" type="line"/>
			<point x="318" y="720" type="line"/>
			<point x="91" y="678" type="line"/>
			<point x="77" y="610" type="line"/>
			<point x="230" y="596" type="line"/>
			<point x="166" y="618" type="line"/>
			<point x="150" y="544"/>
			<point x="136" y="480"/>
			<point x="120" y="406" type="curve" smooth="yes"/>
		</contour>
		<contour>
			<point x="613" y="0" type="curve"/>
			<point x="621" y="56" type="line"/>
			<point x="600" y="58" type="line" smooth="yes"/>
			<point x="568" y="61"/>
			<point x="558" y="73"/>
			<point x="540" y="108" type="curve" smooth="yes"/>
			<point x="508" y="170" type="line" smooth="yes"/>
			<point x="472" y="240"/>
			<point x="420" y="253"/>
			<point x="328" y="260" type="curve" smooth="yes"/>
			<point x="287" y="263" type="line"/>
			<point x="287" y="278" type="line"/>
			<point x="508" y="340" type="line" smooth="yes"/>
			<point x="596" y="365"/>
			<point x="636" y="396"/>
			<point x="636" y="452" type="curve" smooth="yes"/>
			<point x="636" y="500"/>
			<point x="596" y="524"/>
			<point x="556" y="532" type="curve"/>
			<point x="268" y="284" type="line"/>
			<point x="268" y="244" type="line"/>
			<point x="276" y="242" type="line" smooth="yes"/>
			<point x="292" y="238"/>
			<point x="303" y="230"/>
			<point x="312" y="198" type="curve" smooth="yes"/>
			<point x="336" y="116" type="line" smooth="yes"/>
			<point x="363" y="25"/>
			<point x="408" y="-16"/>
			<point x="504" y="-16" type="curve" smooth="yes"/>
			<point x="544" y="-16"/>
			<point x="589" y="-8"/>
		</contour>
	</outline>
	<anchor name="aboveLC" x="264" y="720"/>
	<anchor name="belowLC" x="294" y="-20"/>
</glyph>
<glyph name="m" format="2">
	<unicode hex="006D"/>
	<advance width="1027"/>
	<outline>
		<contour>
			<point x="88" y="-16" type="line"/>
			<point x="236" y="0" type="line"/>
			<point x="253" y="80"/>
			<point x="271" y="160"/>
			<point x="288" y="240" type="curve" smooth="yes"/>
			<point x="316" y="373" type="line"/>
			<point x="300" y="373" type="line"/>
			<point x="322" y="516" type="line"/>
			<point x="262" y="526" type="line"/>
			<point x="53" y="460" type="line"/>
			<point x="38" y="392" type="line"/>
			<point x="188" y="392" type="line"/>
			<point x="132" y="424" type="line"/>
			<point x="40" y="0" type="line"/>
		</contour>
		<contour>
			<point x="408" y="-16" type="line"/>
			<point x="556" y="0" type="line"/>
			<point x="574" y="80"/>
			<point x="592" y="160"/>
			<point x="610" y="240" type="curve" smooth="yes"/>
			<point x="640" y="373" type="line"/>
			<point x="620" y="373" type="line" smooth="yes"/>
			<point x="621" y="385"/>
			<point x="622" y="396"/>
			<point x="622" y="425" type="curve" smooth="yes"/>
			<point x="622" y="490"/>
			<point x="595" y="532"/>
			<point x="514" y="532" type="curve" smooth="yes"/>
			<point x="433" y="532"/>
			<point x="360" y="466"/>
			<point x="324" y="400" type="curve"/>
			<point x="284" y="400" type="line"/>
			<point x="284" y="338" type="line"/>
			<point x="332" y="376"/>
			<point x="364" y="396"/>
			<point x="396" y="396" type="curve" smooth="yes"/>
			<point x="422" y="396"/>
			<point x="436" y="382"/>
			<point x="436" y="360" type="curve" smooth="yes"/>
			<point x="436" y="340"/>
			<point x="432" y="320"/>
			<point x="424" y="284" type="curve" smooth="yes"/>
			<point x="360" y="0" type="line"/>
		</contour>
		<contour>
			<point x="824" y="-16" type="curve" smooth="yes"/>
			<point x="936" y="-16"/>
			<point x="987" y="54"/>
			<point x="1025" y="118" type="curve"/>
			<point x="976" y="148" type="line"/>
			<point x="952" y="111"/>
			<point x="944" y="96"/>
			<point x="924" y="96" type="curve" smooth="yes"/>
			<point x="908" y="96"/>
			<point x="901" y="106"/>
			<point x="901" y="122" type="curve" smooth="yes"/>
			<point x="901" y="136"/>
			<point x="906" y="160"/>
			<point x="912" y="184" type="curve" smooth="yes"/>
			<point x="944" y="316" type="line" smooth="yes"/>
			<point x="952" y="348"/>
			<point x="960" y="380"/>
			<point x="960" y="423" type="curve" smooth="yes"/>
			<point x="960" y="487"/>
			<point x="931" y="532"/>
			<point x="850" y="532" type="curve" smooth="yes"/>
			<point x="759" y="532"/>
			<point x="683" y="474"/>
			<point x="640" y="400" type="curve"/>
			<point x="600" y="400" type="line"/>
			<point x="600" y="338" type="line"/>
			<point x="648" y="376"/>
			<point x="680" y="396"/>
			<point x="714" y="396" type="curve" smooth="yes"/>
			<point x="742" y="396"/>
			<point x="756" y="382"/>
			<point x="756" y="362" type="curve" smooth="yes"/>
			<point x="756" y="346"/>
			<point x="752" y="332"/>
			<point x="744" y="300" type="curve" smooth="yes"/>
			<point x="720" y="200" type="line" smooth="yes"/>
			<point x="712" y="168"/>
			<point x="701" y="131"/>
			<point x="701" y="87" type="curve" smooth="yes"/>
			<point x="701" y="27"/>
			<point x="730" y="-16"/>
		</contour>
	</outline>
	<anchor name="aboveLC" x="561" y="536"/>
	<anchor name="belowLC" x="465" y="-20"/>
</glyph>
<glyph name="x" format="2">
	<unicode hex="0078"/>
	<advance width="691"/>
	<outline>
		<contour>
			<point x="476" y="-16" type="curve" smooth="yes"/>
			<point x="541" y="-16"/>
			<point x="583" y="24"/>
			<point x="636" y="118" type="curve"/>
			<point x="587" y="147" type="line"/>
			<point x="563" y="107"/>
			<point x="558" y="96"/>
			<point x="539" y="96" type="curve" smooth="yes"/>
			<point x="514" y="96"/>
			<point x="500" y="112"/>
			<point x="486" y="148" type="curve" smooth="yes"/>
			<point x="412" y="346" type="line"/>
			<point x="402" y="346" type="line"/>
			<point x="378" y="425" type="line" smooth="yes"/>
			<point x="356" y="497"/>
			<point x="321" y="532"/>
			<point x="252" y="532" type="curve" smooth="yes"/>
			<point x="191" y="532"/>
			<point x="134" y="493"/>
			<point x="74" y="420" type="curve"/>
			<point x="103" y="379" type="line"/>
			<point x="136" y="409"/>
			<point x="159" y="420"/>
			<point x="177" y="420" type="curve" smooth="yes"/>
			<point x="195" y="420"/>
			<point x="202" y="404"/>
			<point x="215" y="368" type="curve" smooth="yes"/>
			<point x="287" y="170" type="line"/>
			<point x="299" y="170" type="line"/>
			<point x="317" y="114" type="line" smooth="yes"/>
			<point x="349" y="13"/>
			<point x="395" y="-16"/>
		</contour>
		<contour>
			<point x="7" y="67" type="curve"/>
			<point x="14" y="9"/>
			<point x="52" y="-16"/>
			<point x="113" y="-16" type="curve" smooth="yes"/>
			<point x="165" y="-16"/>
			<point x="192" y="13"/>
			<point x="237" y="78" type="curve" smooth="yes"/>
			<point x="269" y="124"/>
			<point x="303" y="192"/>
			<point x="353" y="293" type="curve"/>
			<point x="341" y="322" type="line"/>
			<point x="307" y="257"/>
			<point x="239" y="166"/>
			<point x="201" y="117" type="curve" smooth="yes"/>
			<point x="189" y="102"/>
			<point x="176" y="86"/>
			<point x="161" y="68" type="curve"/>
			<point x="124" y="68" type="line"/>
			<point x="147" y="37" type="line"/>
			<point x="147" y="56" type="line" smooth="yes"/>
			<point x="147" y="116"/>
			<point x="128" y="148"/>
			<point x="81" y="148" type="curve" smooth="yes"/>
			<point x="41" y="148"/>
			<point x="14" y="113"/>
		</contour>
		<contour>
			<point x="381" y="222" type="line"/>
			<point x="415" y="291"/>
			<point x="461" y="361"/>
			<point x="499" y="411" type="curve" smooth="yes"/>
			<point x="506" y="421"/>
			<point x="523" y="442"/>
			<point x="533" y="454" type="curve"/>
			<point x="575" y="454" type="line"/>
			<point x="546" y="484" type="line"/>
			<point x="546" y="459" type="line" smooth="yes"/>
			<point x="546" y="398"/>
			<point x="566" y="368"/>
			<point x="611" y="368" type="curve" smooth="yes"/>
			<point x="655" y="368"/>
			<point x="677" y="400"/>
			<point x="688" y="444" type="curve"/>
			<point x="678" y="496"/>
			<point x="655" y="532"/>
			<point x="583" y="532" type="curve" smooth="yes"/>
			<point x="520" y="532"/>
			<point x="496" y="497"/>
			<point x="467" y="453" type="curve" smooth="yes"/>
			<point x="440" y="412"/>
			<point x="416" y="354"/>
			<point x="369" y="251" type="curve"/>
		</contour>
	</outline>
	<anchor name="aboveLC" x="430" y="536"/>
	<anchor name="belowLC" x="284" y="-20"/>
</glyph>
<glyph name="currency" format="2">
	<unicode hex="00A4"/>
	<advance width="560"/>
	<outline>
		<contour>
			<point x="430" y="420" type="line"/>
			<point x="489" y="449" type="line" smooth="yes"/>
			<point x="527" y="469"/>
			<point x="568" y="494"/>
			<point x="568" y="531" type="curve" smooth="yes"/>
			<point x="568" y="557"/>
			<point x="545" y="579"/>
			<point x="520" y="579" type="curve" smooth="yes"/>
			<point x="483" y="579"/>
			<point x="457" y="538"/>
			<point x="438" y="500" type="curve" smooth="yes"/>
			<point x="408" y="442" type="line"/>
		</contour>
		<contour>
			<point x="215" y="322" type="curve" smooth="yes"/>
			<point x="215" y="383"/>
			<point x="261" y="425"/>
			<point x="311" y="425" type="curve" smooth="yes"/>
			<point x="364" y="425"/>
			<point x="407" y="383"/>
			<point x="407" y="322" type="curve" smooth="yes"/>
			<point x="407" y="259"/>
			<point x="364" y="219"/>
			<point x="311" y="219" type="curve" smooth="yes"/>
			<point x="261" y="219"/>
			<point x="215" y="259"/>
		</contour>
		<contour>
			<point x="129" y="322" type="curve" smooth="yes"/>
			<point x="129" y="213"/>
			<point x="213" y="139"/>
			<point x="311" y="139" type="curve" smooth="yes"/>
			<point x="411" y="139"/>
			<point x="493" y="214"/>
			<point x="493" y="322" type="curve" smooth="yes"/>
			<point x="493" y="432"/>
			<point x="411" y="505"/>
			<point x="311" y="505" type="curve" smooth="yes"/>
			<point x="213" y="505"/>
			<point x="129" y="432"/>
		</contour>
		<contour>
			<point x="213" y="441" type="line"/>
			<point x="184" y="500" type="line" smooth="yes"/>
			<point x="164" y="538"/>
			<point x="139" y="579"/>
			<point x="102" y="579" type="curve" smooth="yes"/>
			<point x="76" y="579"/>
			<point x="54" y="556"/>
			<point x="54" y="531" type="curve" smooth="yes"/>
			<point x="54" y="494"/>
			<point x="95" y="468"/>
			<point x="133" y="449" type="curve" smooth="yes"/>
			<point x="191" y="419" type="line"/>
		</contour>
		<contour>
			<point x="192" y="224" type="line"/>
			<point x="133" y="195" type="line" smooth="yes"/>
			<point x="95" y="175"/>
			<point x="54" y="150"/>
			<point x="54" y="113" type="curve" smooth="yes"/>
			<point x="54" y="87"/>
			<point x="77" y="65"/>
			<point x="102" y="65" type="curve" smooth="yes"/>
			<point x="139" y="65"/>
			<point x="165" y="106"/>
			<point x="184" y="144" type="curve" smooth="yes"/>
			<point x="214" y="202" type="line"/>
		</contour>
		<contour>
			<point x="409" y="203" type="line"/>
			<point x="438" y="144" type="line" smooth="yes"/>
			<point x="458" y="106"/>
			<point x="483" y="65"/>
			<point x="520" y="65" type="curve" smooth="yes"/>
			<point x="546" y="65"/>
			<point x="568" y="88"/>
			<point x="568" y="113" type="curve" smooth="yes"/>
			<point x="568" y="150"/>
			<point x="527" y="176"/>
			<point x="489" y="195" type="curve" smooth="yes"/>
			<point x="431" y="225" type="line"/>
		</contour>
	</outline>
</glyph>
<glyph name="two.sups" format="2">
	<unicode hex="00B2"/>
	<advance width="442"/>
	<outline>
		<contour>
			<point x="111" y="415" type="line"/>
			<point x="439" y="415" type="line"/>
			<point x="460" y="512" type="line"/>
			<point x="229" y="512" type="line"/>
			<point x="229" y="522" type="line"/>
			<point x="430" y="617"/>
			<point x="496" y="661"/>
			<point x="496" y="735" type="curve" smooth="yes"/>
			<point x="496" y="809"/>
			<point x="434" y="850"/>
			<point x="340" y="850" type="curve" smooth="yes"/>
			<point x="250" y="850"/>
			<point x="183" y="812"/>
			<point x="166" y="732" type="curve"/>
			<point x="173" y="700"/>
			<point x="192" y="684"/>
			<point x="223" y="684" type="curve" smooth="yes"/>
			<point x="254" y="684"/>
			<point x="277" y="700"/>
			<point x="278" y="738" type="curve" smooth="yes"/>
			<point x="281" y="831" type="line"/>
			<point x="254" y="803" type="line"/>
			<point x="265" y="805"/>
			<point x="275" y="806"/>
			<point x="286" y="806" type="curve" smooth="yes"/>
			<point x="322" y="806"/>
			<point x="359" y="788"/>
			<point x="359" y="728" type="curve" smooth="yes"/>
			<point x="359" y="675"/>
			<point x="311" y="625"/>
			<point x="127" y="493" type="curve"/>
		</contour>
	</outline>
</glyph>
<glyph name="idieresis" format="2">
	<unicode hex="00EF"/>
	<advance width="366"/>
	<outline>
		<contour>
			<point x="157" y="597" type="curve" smooth="yes"/>
			<point x="213" y="597"/>
			<point x="250" y="641"/>
			<point x="250" y="688" type="curve" smooth="yes"/>
			<point x="250" y="730"/>
			<point x="218" y="761"/>
			<point x="171" y="761" type="curve" smooth="yes"/>
			<point x="115" y="761"/>
			<point x="79" y="717"/>
			<point x="79" y="670" type="curve" smooth="yes"/>
			<point x="79" y="628"/>
			<point x="109" y="597"/>
		</contour>
		<contour>
			<point x="366" y="597" type="curve" smooth="yes"/>
			<point x="422" y="597"/>
			<point x="459" y="641"/>
			<point x="459" y="688" type="curve" smooth="yes"/>
			<point x="459" y="730"/>
			<point x="428" y="761"/>
			<point x="380" y="761" type="curve" smooth="yes"/>
			<point x="324" y="761"/>
			<point x="288" y="717"/>
			<point x="288" y="670" type="curve" smooth="yes"/>
			<point x="288" y="628"/>
			<point x="319" y="597"/>
		</contour>
		<component base="dotlessi"/>
	</outline>
</glyph>
<glyph name="divide" format="2">
	<unicode hex="00F7"/>
	<advance width="600"/>
	<outline>
		<contour>
			<point x="324" y="48" type="curve" smooth="yes"/>
			<point x="370" y="48"/>
			<point x="404" y="83"/>
			<point x="404" y="128" type="curve" smooth="yes"/>
			<point x="404" y="173"/>
			<point x="370" y="208"/>
			<point x="324" y="208" type="curve" smooth="yes"/>
			<point x="278" y="208"/>
			<point x="244" y="173"/>
			<point x="244" y="128" type="curve" smooth="yes"/>
			<point x="244" y="83"/>
			<point x="278" y="48"/>
		</contour>
		<contour>
			<point x="324" y="424" type="curve" smooth="yes"/>
			<point x="370" y="424"/>
			<point x="404" y="459"/>
			<point x="404" y="504" type="curve" smooth="yes"/>
			<point x="404" y="549"/>
			<point x="370" y="584"/>
			<point x="324" y="584" type="curve" smooth="yes"/>
			<point x="278" y="584"/>
			<point x="244" y="549"/>
			<point x="244" y="504" type="curve" smooth="yes"/>
			<point x="244" y="459"/>
			<point x="278" y="424"/>
		</contour>
		<component base="minus"/>
	</outline>
</glyph>
<glyph name="kgreenlandic" format="2">
	<unicode hex="0138"/>
	<advance width="636"/>
	<outline>
		<contour>
			<point x="81" y="-16" type="line"/>
			<point x="229" y="0" type="line"/>
			<point x="246" y="80"/>
			<point x="264" y="160"/>
			<point x="281" y="240" type="curve" smooth="yes"/>
			<point x="309" y="368" type="line"/>
			<point x="341" y="516" type="line"/>
			<point x="257" y="526" type="line"/>
			<point x="46" y="460" type="line"/>
			<point x="32" y="392" type="line"/>
			<point x="181" y="392" type="line"/>
			<point x="125" y="424" type="line"/>
			<point x="33" y="0" type="line"/>
		</contour>
		<contour>
			<point x="502" y="-16" type="curve" smooth="yes"/>
			<point x="542" y="-16"/>
			<point x="587" y="-8"/>
			<point x="611" y="0" type="curve"/>
			<point x="619" y="56" type="line"/>
			<point x="598" y="58" type="line" smooth="yes"/>
			<point x="566" y="61"/>
			<point x="557" y="74"/>
			<point x="538" y="108" type="curve" smooth="yes"/>
			<point x="507" y="165" type="line" smooth="yes"/>
			<point x="478" y="219"/>
			<point x="439" y="241"/>
			<point x="337" y="249" type="curve" smooth="yes"/>
			<point x="284" y="253" type="line"/>
			<point x="284" y="263" type="line"/>
			<point x="516" y="340" type="line" smooth="yes"/>
			<point x="603" y="369"/>
			<point x="644" y="396"/>
			<point x="644" y="452" type="curve" smooth="yes"/>
			<point x="644" y="500"/>
			<point x="604" y="524"/>
			<point x="564" y="532" type="curve"/>
			<point x="265" y="269" type="line"/>
			<point x="265" y="234" type="line"/>
			<point x="273" y="232" type="line" smooth="yes"/>
			<point x="291" y="228"/>
			<point x="303" y="221"/>
			<point x="313" y="188" type="curve" smooth="yes"/>
			<point x="334" y="116" type="line" smooth="yes"/>
			<point x="361" y="25"/>
			<point x="406" y="-16"/>
		</contour>
	</outline>
</glyph>
<glyph name="Lslash" format="2">
	<unicode hex="0141"/>
	<advance width="602"/>
	<outline>
		<contour>
			<point x="500" y="484" type="line"/>
			<point x="268" y="356" type="line"/>
			<point x="268" y="300" type="line"/>
			<point x="484" y="404" type="line"/>
		</contour>
		<contour>
			<point x="228" y="356" type="line"/>
			<point x="52" y="272" type="line"/>
			<point x="36" y="192" type="line"/>
			<point x="228" y="298" type="line"/>
		</contour>
		<component base="L"/>
	</outline>
</glyph>
<glyph name="Eng" format="2">
	<unicode hex="014A"/>
	<advance width="732"/>
	<outline>
		<contour>
			<point x="4" y="0" type="line"/>
			<point x="258" y="0" type="line"/>
			<point x="272" y="76" type="line"/>
			<point x="144" y="76" type="line"/>
			<point x="128" y="76" type="line"/>
			<point x="18" y="76" type="line"/>
		</contour>
		<contour>
			<point x="80" y="0" type="line"/>
			<point x="164" y="0" type="line"/>
			<point x="213" y="311" type="line"/>
			<point x="243" y="641" type="line"/>
			<point x="199" y="641" type="line"/>
		</contour>
		<contour>
			<point x="341" y="-154" type="curve" smooth="yes"/>
			<point x="413" y="-154"/>
			<point x="471" y="-122"/>
			<point x="525" y="-67" type="curve" smooth="yes"/>
			<point x="572" y="-18"/>
			<point x="615" y="30"/>
			<point x="646" y="206" type="curve" smooth="yes"/>
			<point x="725" y="652" type="line"/>
			<point x="645" y="652" type="line"/>
			<point x="602" y="388" type="line"/>
			<point x="576" y="169" type="line" smooth="yes"/>
			<point x="560" y="30"/>
			<point x="494" y="-54"/>
			<point x="392" y="-101" type="curve"/>
			<point x="431" y="-90" type="line"/>
			<point x="357" y="-90" type="line"/>
			<point x="415" y="-114" type="line"/>
			<point x="401" y="-78" type="line" smooth="yes"/>
			<point x="380" y="-25"/>
			<point x="351" y="-11"/>
			<point x="308" y="-11" type="curve" smooth="yes"/>
			<point x="267" y="-11"/>
			<point x="243" y="-39"/>
			<point x="232" y="-79" type="curve"/>
			<point x="243" y="-127"/>
			<point x="282" y="-154"/>
		</contour>
		<contour>
			<point x="405" y="0" type="line"/>
			<point x="545" y="0" type="line"/>
			<point x="612" y="123" type="line"/>
			<point x="553" y="123" type="line"/>
			<point x="415" y="652" type="line"/>
			<point x="122" y="652" type="line"/>
			<point x="108" y="576" type="line"/>
			<point x="223" y="576" type="line"/>
			<point x="223" y="554" type="line"/>
			<point x="251" y="554" type="line"/>
		</contour>
		<contour>
			<point x="662" y="576" type="line"/>
			<point x="678" y="576" type="line"/>
			<point x="788" y="576" type="line"/>
			<point x="802" y="652" type="line"/>
			<point x="556" y="652" type="line"/>
			<point x="542" y="576" type="line"/>
		</contour>
	</outline>
</glyph>
<glyph name="uogonek" format="2">
	<unicode hex="0173"/>
	<advance width="715"/>
	<outline>
		<contour>
			<point x="182" y="-16" type="curve" smooth="yes"/>
			<point x="280" y="-16"/>
			<point x="332" y="28"/>
			<point x="374" y="92" type="curve"/>
			<point x="418" y="92" type="line"/>
			<point x="420" y="154" type="line"/>
			<point x="376" y="130"/>
			<point x="345" y="116"/>
			<point x="308" y="116" type="curve" smooth="yes"/>
			<point x="280" y="116"/>
			<point x="266" y="134"/>
			<point x="266" y="156" type="curve" smooth="yes"/>
			<point x="266" y="172"/>
			<point x="270" y="188"/>
			<point x="278" y="220" type="curve" smooth="yes"/>
			<point x="348" y="516" type="line"/>
			<point x="254" y="526" type="line"/>
			<point x="53" y="461" type="line"/>
			<point x="39" y="392" type="line"/>
			<point x="196" y="392" type="line"/>
			<point x="132" y="424" type="line"/>
			<point x="80" y="212" type="line" smooth="yes"/>
			<point x="72" y="180"/>
			<point x="64" y="140"/>
			<point x="64" y="90" type="curve" smooth="yes"/>
			<point x="64" y="36"/>
			<point x="96" y="-16"/>
		</contour>
		<contour>
			<point x="552" y="-232" type="curve" smooth="yes"/>
			<point x="620" y="-232"/>
			<point x="660" y="-200"/>
			<point x="676" y="-184" type="curve"/>
			<point x="648" y="-136" type="line"/>
			<point x="644" y="-138"/>
			<point x="630" y="-144"/>
			<point x="612" y="-144" type="curve" smooth="yes"/>
			<point x="582" y="-144"/>
			<point x="564" y="-128"/>
			<point x="564" y="-100" type="curve" smooth="yes"/>
			<point x="564" y="-68"/>
			<point x="574" y="-33"/>
			<point x="614" y="0" type="curve" smooth="yes"/>
			<point x="660" y="37"/>
			<point x="688" y="79"/>
			<point x="709" y="117" type="curve"/>
			<point x="660" y="148" type="line"/>
			<point x="636" y="112"/>
			<point x="628" y="96"/>
			<point x="608" y="96" type="curve" smooth="yes"/>
			<point x="592" y="96"/>
			<point x="584" y="106"/>
			<point x="584" y="122" type="curve" smooth="yes"/>
			<point x="584" y="136"/>
			<point x="590" y="164"/>
			<point x="596" y="192" type="curve" smooth="yes"/>
			<point x="668" y="516" type="line"/>
			<point x="620" y="526" type="line"/>
			<point x="469" y="506" type="line"/>
			<point x="459" y="457"/>
			<point x="448" y="409"/>
			<point x="438" y="360" type="curve" smooth="yes"/>
			<point x="386" y="115" type="line"/>
			<point x="399" y="115" type="line"/>
			<point x="399" y="112"/>
			<point x="398" y="109"/>
			<point x="398" y="106" type="curve" smooth="yes"/>
			<point x="398" y="20"/>
			<point x="431" y="-10"/>
			<point x="518" y="-10" type="curve" smooth="yes"/>
			<point x="546" y="-10"/>
			<point x="556" y="-8"/>
			<point x="588" y="-3" type="curve"/>
			<point x="558" y="22" type="line"/>
			<point x="558" y="-26" type="line"/>
			<point x="499" y="-44"/>
			<point x="448" y="-76"/>
			<point x="448" y="-144" type="curve" smooth="yes"/>
			<point x="448" y="-192"/>
			<point x="484" y="-232"/>
		</contour>
	</outline>
	<anchor name="aboveLC" x="408" y="536"/>
	<anchor name="belowLC" x="358" y="-20"/>
</glyph>
<glyph name="h.sups" format="2">
	<unicode hex="02B0"/>
	<advance width="504"/>
	<outline>
		<contour>
			<point x="133" y="404" type="line"/>
			<point x="239" y="415" type="line"/>
			<point x="295" y="665" type="line"/>
			<point x="285" y="665" type="line"/>
			<point x="340" y="894" type="line"/>
			<point x="301" y="901" type="line"/>
			<point x="141" y="872" type="line"/>
			<point x="131" y="826" type="line"/>
			<point x="238" y="816" type="line"/>
			<point x="192" y="830" type="line"/>
			<point x="99" y="415" type="line"/>
		</contour>
		<contour>
			<point x="428" y="404" type="curve" smooth="yes"/>
			<point x="507" y="404"/>
			<point x="543" y="452"/>
			<point x="569" y="495" type="curve"/>
			<point x="535" y="515" type="line"/>
			<point x="518" y="491"/>
			<point x="513" y="481"/>
			<point x="499" y="481" type="curve" smooth="yes"/>
			<point x="479" y="481"/>
			<point x="482" y="504"/>
			<point x="491" y="540" type="curve" smooth="yes"/>
			<point x="513" y="628" type="line" smooth="yes"/>
			<point x="519" y="650"/>
			<point x="524" y="671"/>
			<point x="524" y="702" type="curve" smooth="yes"/>
			<point x="524" y="744"/>
			<point x="498" y="775"/>
			<point x="447" y="775" type="curve" smooth="yes"/>
			<point x="384" y="775"/>
			<point x="338" y="740"/>
			<point x="300" y="686" type="curve"/>
			<point x="272" y="686" type="line"/>
			<point x="272" y="644" type="line"/>
			<point x="304" y="669"/>
			<point x="326" y="681"/>
			<point x="350" y="681" type="curve" smooth="yes"/>
			<point x="369" y="681"/>
			<point x="379" y="672"/>
			<point x="379" y="658" type="curve" smooth="yes"/>
			<point x="379" y="648"/>
			<point x="376" y="639"/>
			<point x="370" y="617" type="curve" smooth="yes"/>
			<point x="354" y="552" type="line" smooth="yes"/>
			<point x="348" y="530"/>
			<point x="341" y="505"/>
			<point x="341" y="475" type="curve" smooth="yes"/>
			<point x="341" y="433"/>
			<point x="361" y="404"/>
		</contour>
	</outline>
</glyph>
<glyph name="x.sups" format="2">
	<unicode hex="02E3"/>
	<advance width="491"/>
	<outline>
		<contour>
			<point x="299" y="492" type="line" smooth="yes"/>
			<point x="321" y="423"/>
			<point x="354" y="404"/>
			<point x="411" y="404" type="curve" smooth="yes"/>
			<point x="456" y="404"/>
			<point x="486" y="431"/>
			<point x="522" y="495" type="curve"/>
			<point x="488" y="515" type="line"/>
			<point x="472" y="488"/>
			<point x="469" y="481"/>
			<point x="456" y="481" type="curve" smooth="yes"/>
			<point x="439" y="481"/>
			<point x="429" y="492"/>
			<point x="419" y="516" type="curve" smooth="yes"/>
			<point x="367" y="650" type="line"/>
			<point x="360" y="650" type="line"/>
			<point x="343" y="702" type="line" smooth="yes"/>
			<point x="328" y="751"/>
			<point x="303" y="775"/>
			<point x="254" y="775" type="curve" smooth="yes"/>
			<point x="212" y="775"/>
			<point x="171" y="749"/>
			<point x="129" y="700" type="curve"/>
			<point x="149" y="671" type="line"/>
			<point x="172" y="691"/>
			<point x="188" y="698"/>
			<point x="200" y="698" type="curve" smooth="yes"/>
			<point x="213" y="698"/>
			<point x="217" y="687"/>
			<point x="227" y="663" type="curve" smooth="yes"/>
			<point x="278" y="530" type="line"/>
			<point x="286" y="530" type="line"/>
		</contour>
		<contour>
			<point x="83" y="461" type="curve"/>
			<point x="87" y="421"/>
			<point x="114" y="404"/>
			<point x="157" y="404" type="curve" smooth="yes"/>
			<point x="193" y="404"/>
			<point x="212" y="424"/>
			<point x="244" y="469" type="curve" smooth="yes"/>
			<point x="266" y="500"/>
			<point x="290" y="546"/>
			<point x="325" y="614" type="curve"/>
			<point x="317" y="634" type="line"/>
			<point x="293" y="590"/>
			<point x="245" y="528"/>
			<point x="218" y="495" type="curve" smooth="yes"/>
			<point x="210" y="485"/>
			<point x="201" y="474"/>
			<point x="190" y="462" type="curve"/>
			<point x="165" y="462" type="line"/>
			<point x="180" y="441" type="line"/>
			<point x="181" y="453" type="line" smooth="yes"/>
			<point x="181" y="495"/>
			<point x="168" y="517"/>
			<point x="135" y="517" type="curve" smooth="yes"/>
			<point x="107" y="517"/>
			<point x="87" y="492"/>
		</contour>
		<contour>
			<point x="344" y="565" type="line"/>
			<point x="367" y="611"/>
			<point x="399" y="658"/>
			<point x="426" y="692" type="curve" smooth="yes"/>
			<point x="431" y="698"/>
			<point x="443" y="713"/>
			<point x="450" y="721" type="curve"/>
			<point x="479" y="721" type="line"/>
			<point x="459" y="742" type="line"/>
			<point x="459" y="725" type="line" smooth="yes"/>
			<point x="458" y="683"/>
			<point x="472" y="662"/>
			<point x="504" y="662" type="curve" smooth="yes"/>
			<point x="535" y="662"/>
			<point x="551" y="684"/>
			<point x="559" y="715" type="curve"/>
			<point x="552" y="750"/>
			<point x="535" y="775"/>
			<point x="485" y="775" type="curve" smooth="yes"/>
			<point x="441" y="775"/>
			<point x="424" y="751"/>
			<point x="404" y="721" type="curve" smooth="yes"/>
			<point x="385" y="693"/>
			<point x="369" y="654"/>
			<point x="336" y="585" type="curve"/>
		</contour>
	</outline>
</glyph>
<glyph name="acutecmb" format="2">
	<unicode hex="0301"/>
	<outline>
		<contour>
			<point x="89" y="586" type="curve"/>
			<point x="149" y="550" type="line"/>
			<point x="178" y="582"/>
			<point x="208" y="614"/>
			<point x="237" y="646" type="curve" smooth="yes"/>
			<point x="273" y="686"/>
			<point x="289" y="704"/>
			<point x="289" y="740" type="curve" smooth="yes"/>
			<point x="289" y="776"/>
			<point x="261" y="798"/>
			<point x="225" y="798" type="curve" smooth="yes"/>
			<point x="189" y="798"/>
			<point x="165" y="778"/>
			<point x="141" y="718" type="curve" smooth="yes"/>
			<point x="124" y="674"/>
			<point x="106" y="630"/>
		</contour>
	</outline>
	<anchor name="_aboveLC" x="115" y="536"/>
	<anchor name="aboveLC" x="154" y="798"/>
</glyph>
<glyph name="macroncmb" format="2">
	<unicode hex="0304"/>
	<outline>
		<contour>
			<point x="-16" y="606" type="line"/>
			<point x="272" y="606" type="line"/>
			<point x="288" y="694" type="line"/>
			<point x="0" y="694" type="line"/>
		</contour>
	</outline>
	<anchor name="_aboveLC" x="115" y="536"/>
	<anchor name="aboveLC" x="146" y="694"/>
</glyph>
<glyph name="horncmb" format="2">
	<unicode hex="031B"/>
	<outline>
		<contour>
			<point x="117" y="508" type="line"/>
			<point x="266" y="543"/>
			<point x="318" y="598"/>
			<point x="318" y="703" type="curve" smooth="yes"/>
			<point x="318" y="727"/>
			<point x="312" y="752"/>
			<point x="305" y="765" type="curve"/>
			<point x="293" y="771"/>
			<point x="282" y="776"/>
			<point x="257" y="776" type="curve" smooth="yes"/>
			<point x="212" y="776"/>
			<point x="182" y="750"/>
			<point x="182" y="712" type="curve" smooth="yes"/>
			<point x="182" y="671"/>
			<point x="214" y="654"/>
			<point x="214" y="629" type="curve" smooth="yes"/>
			<point x="214" y="588"/>
			<point x="172" y="571"/>
			<point x="108" y="553" type="curve"/>
		</contour>
	</outline>
	<anchor name="_hornLC" x="110" y="516"/>
</glyph>
<glyph name="commabelowcmb" format="2">
	<unicode hex="0326"/>
	<outline>
		<contour>
			<point x="6" y="-128" type="curve" smooth="yes"/>
			<point x="6" y="-96"/>
			<point x="-2" y="-76"/>
			<point x="-10" y="-62" type="curve"/>
			<point x="-16" y="-58"/>
			<point x="-34" y="-52"/>
			<point x="-62" y="-52" type="curve" smooth="yes"/>
			<point x="-110" y="-52"/>
			<point x="-142" y="-80"/>
			<point x="-142" y="-122" type="curve" smooth="yes"/>
			<point x="-142" y="-160"/>
			<point x="-110" y="-184"/>
			<point x="-62" y="-200" type="curve"/>
			<point x="-62" y="-168" type="line"/>
			<point x="-86" y="-192"/>
			<point x="-134" y="-216"/>
			<point x="-182" y="-232" type="curve"/>
			<point x="-158" y="-284" type="line"/>
			<point x="-46" y="-260"/>
			<point x="6" y="-200"/>
		</contour>
	</outline>
	<anchor name="_belowLC" x="-47" y="-20"/>
	<anchor name="belowLC" x="-103" y="-284"/>
</glyph>
<glyph name="ogonekcmb" format="2">
	<unicode hex="0328"/>
	<outline>
		<contour>
			<point x="-179" y="-140" type="curve" smooth="yes"/>
			<point x="-179" y="-196"/>
			<point x="-139" y="-232"/>
			<point x="-71" y="-232" type="curve" smooth="yes"/>
			<point x="-3" y="-232"/>
			<point x="33" y="-200"/>
			<point x="49" y="-184" type="curve"/>
			<point x="21" y="-136" type="line"/>
			<point x="17" y="-138"/>
			<point x="3" y="-144"/>
			<point x="-15" y="-144" type="curve" smooth="yes"/>
			<point x="-45" y="-144"/>
			<point x="-63" y="-128"/>
			<point x="-63" y="-100" type="curve" smooth="yes"/>
			<point x="-63" y="-64"/>
			<point x="-39" y="-32"/>
			<point x="5" y="8" type="curve"/>
			<point x="-55" y="8" type="line"/>
			<point x="-55" y="-24" type="line"/>
			<point x="-131" y="-44"/>
			<point x="-179" y="-72"/>
		</contour>
	</outline>
	<anchor name="_ogonek" x="-43" y="0"/>
</glyph>
<glyph name="verticallinebelowcmb" format="2">
	<unicode hex="0329"/>
	<outline>
		<contour>
			<point x="-170" y="-268" type="line"/>
			<point x="-18" y="-268" type="line"/>
			<point x="6" y="-64" type="line"/>
			<point x="-106" y="-64" type="line"/>
		</contour>
	</outline>
	<anchor name="_belowLC" x="-47" y="-20"/>
	<anchor name="belowLC" x="-100" y="-268"/>
</glyph>
<glyph name="Gamma" format="2">
	<unicode hex="0393"/>
	<advance width="562"/>
	<outline>
		<contour>
			<point x="508" y="456" type="line"/>
			<point x="588" y="456" type="line"/>
			<point x="612" y="652" type="line"/>
			<point x="284" y="652" type="line"/>
			<point x="284" y="580" type="line"/>
			<point x="544" y="580" type="line"/>
			<point x="476" y="632" type="line"/>
		</contour>
		<contour>
			<point x="4" y="0" type="line"/>
			<point x="378" y="0" type="line"/>
			<point x="392" y="76" type="line"/>
			<point x="260" y="76" type="line"/>
			<point x="164" y="76" type="line"/>
			<point x="18" y="76" type="line"/>
		</contour>
		<contour>
			<point x="80" y="0" type="line"/>
			<point x="276" y="0" type="line"/>
			<point x="293" y="95"/>
			<point x="311" y="189"/>
			<point x="328" y="284" type="curve" smooth="yes"/>
			<point x="396" y="652" type="line"/>
			<point x="200" y="652" type="line"/>
			<point x="183" y="557"/>
			<point x="165" y="463"/>
			<point x="148" y="368" type="curve" smooth="yes"/>
		</contour>
		<contour>
			<point x="104" y="576" type="line"/>
			<point x="244" y="576" type="line"/>
			<point x="260" y="576" type="line"/>
			<point x="260" y="652" type="line"/>
			<point x="118" y="652" type="line"/>
		</contour>
	</outline>
</glyph>
<glyph name="Delta" format="2">
	<unicode hex="0394"/>
	<unicode hex="2206"/>
	<advance width="620"/>
	<outline>
		<contour>
			<point x="-9" y="0" type="line"/>
			<point x="556" y="0" type="line"/>
			<point x="575" y="88" type="line"/>
			<point x="481" y="652" type="line"/>
			<point x="305" y="652" type="line"/>
			<point x="7" y="88" type="line"/>
		</contour>
		<contour>
			<point x="76" y="70" type="line"/>
			<point x="230" y="378" type="line"/>
			<point x="297" y="556" type="line"/>
			<point x="309" y="556" type="line"/>
			<point x="382" y="67" type="line"/>
			<point x="411" y="96" type="line"/>
			<point x="59" y="96" type="line"/>
		</contour>
	</outline>
</glyph>
<glyph name="Lambda" format="2">
	<unicode hex="039B"/>
	<advance width="732"/>
	<outline>
		<contour>
			<point x="-4" y="0" type="line"/>
			<point x="226" y="0" type="line"/>
			<point x="240" y="76" type="line"/>
			<point x="148" y="76" type="line"/>
			<point x="92" y="76" type="line"/>
			<point x="10" y="76" type="line"/>
		</contour>
		<contour>
			<point x="36" y="0" type="line"/>
			<point x="124" y="0" type="line"/>
			<point x="342" y="424" type="line"/>
			<point x="376" y="555" type="line"/>
			<point x="392" y="555" type="line"/>
			<point x="460" y="0" type="line"/>
			<point x="632" y="0" type="line"/>
			<point x="512" y="652" type="line"/>
			<point x="386" y="652" type="line"/>
		</contour>
		<contour>
			<point x="356" y="0" type="line"/>
			<point x="678" y="0" type="line"/>
			<point x="692" y="76" type="line"/>
			<point x="568" y="76" type="line"/>
			<point x="496" y="76" type="line"/>
			<point x="370" y="76" type="line"/>
		</contour>
	</outline>
</glyph>
<glyph name="epsilon" format="2">
	<unicode hex="03B5"/>
	<advance width="521"/>
	<outline>
		<contour>
			<point x="222" y="-16" type="curve" smooth="yes"/>
			<point x="358" y="-16"/>
			<point x="460" y="50"/>
			<point x="508" y="106" type="curve"/>
			<point x="476" y="154" type="line"/>
			<point x="428" y="122"/>
			<point x="376" y="104"/>
			<point x="304" y="104" type="curve" smooth="yes"/>
			<point x="248" y="104"/>
			<point x="212" y="124"/>
			<point x="212" y="164" type="curve" smooth="yes"/>
			<point x="212" y="204"/>
			<point x="244" y="232"/>
			<point x="327" y="232" type="curve" smooth="yes"/>
			<point x="352" y="232"/>
			<point x="378" y="231"/>
			<point x="393" y="230" type="curve"/>
			<point x="408" y="334" type="line"/>
			<point x="392" y="334"/>
			<point x="376" y="333"/>
			<point x="352" y="333" type="curve" smooth="yes"/>
			<point x="280" y="333"/>
			<point x="248" y="352"/>
			<point x="248" y="400" type="curve" smooth="yes"/>
			<point x="248" y="456"/>
			<point x="280" y="480"/>
			<point x="352" y="480" type="curve" smooth="yes"/>
			<point x="392" y="480"/>
			<point x="416" y="476"/>
			<point x="432" y="472" type="curve"/>
			<point x="432" y="503" type="line"/>
			<point x="321" y="503" type="line"/>
			<point x="358" y="447" type="line" smooth="yes"/>
			<point x="383" y="410"/>
			<point x="420" y="382"/>
			<point x="464" y="382" type="curve" smooth="yes"/>
			<point x="503" y="382"/>
			<point x="529" y="410"/>
			<point x="534" y="460" type="curve"/>
			<point x="509" y="501"/>
			<point x="455" y="532"/>
			<point x="320" y="532" type="curve" smooth="yes"/>
			<point x="168" y="532"/>
			<point x="74" y="476"/>
			<point x="74" y="388" type="curve" smooth="yes"/>
			<point x="74" y="308"/>
			<point x="147" y="272"/>
			<point x="253" y="272" type="curve"/>
			<point x="248" y="248" type="line"/>
			<point x="110" y="248"/>
			<point x="22" y="216"/>
			<point x="22" y="115" type="curve" smooth="yes"/>
			<point x="22" y="31"/>
			<point x="100" y="-16"/>
		</contour>
	</outline>
	<anchor name="aboveLC" x="328" y="536"/>
	<anchor name="belowLC" x="223" y="-20"/>
</glyph>
<glyph name="zeta" format="2">
	<unicode hex="03B6"/>
	<advance width="456"/>
	<outline>
		<contour>
			<point x="244" y="-188" type="curve"/>
			<point x="287" y="-227" type="line"/>
			<point x="365" y="-178"/>
			<point x="433" y="-100"/>
			<point x="433" y="-28" type="curve" smooth="yes"/>
			<point x="433" y="36"/>
			<point x="417" y="79"/>
			<point x="316" y="132" type="curve" smooth="yes"/>
			<point x="231" y="176"/>
			<point x="214" y="197"/>
			<point x="214" y="250" type="curve" smooth="yes"/>
			<point x="214" y="336"/>
			<point x="283" y="422"/>
			<point x="491" y="589" type="curve"/>
			<point x="509" y="710" type="line"/>
			<point x="128" y="722" type="line"/>
			<point x="102" y="591" type="line"/>
			<point x="415" y="601" type="line"/>
			<point x="415" y="582" type="line"/>
			<point x="122" y="400"/>
			<point x="36" y="296"/>
			<point x="36" y="176" type="curve" smooth="yes"/>
			<point x="36" y="80"/>
			<point x="83" y="46"/>
			<point x="176" y="0" type="curve" smooth="yes"/>
			<point x="256" y="-40"/>
			<point x="281" y="-68"/>
			<point x="281" y="-100" type="curve" smooth="yes"/>
			<point x="281" y="-132"/>
			<point x="264" y="-156"/>
		</contour>
	</outline>
</glyph>
<glyph name="kappa" format="2">
	<unicode hex="03BA"/>
	<advance width="648"/>
	<outline>
		<contour>
			<point x="44" y="0" type="curve"/>
			<point x="82" y="-16" type="line"/>
			<point x="257" y="0" type="line"/>
			<point x="318" y="361" type="line" smooth="yes"/>
			<point x="338" y="481"/>
			<point x="304" y="532"/>
			<point x="212" y="532" type="curve" smooth="yes"/>
			<point x="142" y="532"/>
			<point x="97" y="495"/>
			<point x="50" y="438" type="curve"/>
			<point x="72" y="394" type="line"/>
			<point x="84" y="400"/>
			<point x="96" y="405"/>
			<point x="106" y="405" type="curve" smooth="yes"/>
			<point x="136" y="405"/>
			<point x="130" y="366"/>
			<point x="122" y="333" type="curve" smooth="yes"/>
			<point x="82" y="158"/>
			<point x="64" y="80"/>
		</contour>
		<contour>
			<point x="472" y="-16" type="curve" smooth="yes"/>
			<point x="546" y="-16"/>
			<point x="602" y="25"/>
			<point x="639" y="73" type="curve"/>
			<point x="602" y="118" type="line"/>
			<point x="589" y="102"/>
			<point x="568" y="88"/>
			<point x="553" y="88" type="curve" smooth="yes"/>
			<point x="537" y="88"/>
			<point x="525" y="93"/>
			<point x="518" y="116" type="curve" smooth="yes"/>
			<point x="502" y="166" type="line" smooth="yes"/>
			<point x="481" y="230"/>
			<point x="450" y="257"/>
			<point x="367" y="261" type="curve" smooth="yes"/>
			<point x="301" y="264" type="line"/>
			<point x="301" y="274" type="line"/>
			<point x="522" y="340" type="line" smooth="yes"/>
			<point x="609" y="366"/>
			<point x="650" y="396"/>
			<point x="650" y="452" type="curve" smooth="yes"/>
			<point x="650" y="500"/>
			<point x="610" y="524"/>
			<point x="570" y="532" type="curve"/>
			<point x="295" y="289" type="line"/>
			<point x="282" y="250" type="line"/>
			<point x="296" y="246" type="line" smooth="yes"/>
			<point x="309" y="242"/>
			<point x="313" y="234"/>
			<point x="317" y="213" type="curve" smooth="yes"/>
			<point x="338" y="108" type="line" smooth="yes"/>
			<point x="358" y="10"/>
			<point x="395" y="-16"/>
		</contour>
	</outline>
</glyph>
<glyph name="nu" format="2">
	<unicode hex="03BD"/>
	<advance width="565"/>
	<outline>
		<contour>
			<point x="148" y="0" type="curve"/>
			<point x="184" y="-16" type="line"/>
			<point x="316" y="0" type="line"/>
			<point x="395" y="79"/>
			<point x="514" y="243"/>
			<point x="536" y="300" type="curve" smooth="yes"/>
			<point x="559" y="356"/>
			<point x="573" y="408"/>
			<point x="571" y="460" type="curve" smooth="yes"/>
			<point x="570" y="488"/>
			<point x="565" y="508"/>
			<point x="561" y="520" type="curve"/>
			<point x="549" y="526"/>
			<point x="526" y="532"/>
			<point x="498" y="532" type="curve" smooth="yes"/>
			<point x="440" y="532"/>
			<point x="406" y="496"/>
			<point x="408" y="440" type="curve" smooth="yes"/>
			<point x="409" y="404"/>
			<point x="427" y="369"/>
			<point x="445" y="340" type="curve" smooth="yes"/>
			<point x="483" y="278" type="line"/>
			<point x="491" y="404" type="line"/>
			<point x="487" y="388"/>
			<point x="481" y="364"/>
			<point x="473" y="340" type="curve" smooth="yes"/>
			<point x="446" y="256"/>
			<point x="401" y="170"/>
			<point x="343" y="86" type="curve"/>
			<point x="321" y="86" type="line"/>
			<point x="318" y="201"/>
			<point x="307" y="314"/>
			<point x="297" y="419" type="curve" smooth="yes"/>
			<point x="288" y="508"/>
			<point x="255" y="532"/>
			<point x="189" y="532" type="curve" smooth="yes"/>
			<point x="125" y="532"/>
			<point x="73" y="501"/>
			<point x="21" y="440" type="curve"/>
			<point x="44" y="394" type="line"/>
			<point x="56" y="401"/>
			<point x="74" y="405"/>
			<point x="83" y="405" type="curve" smooth="yes"/>
			<point x="97" y="405"/>
			<point x="107" y="396"/>
			<point x="113" y="366" type="curve" smooth="yes"/>
			<point x="129" y="281"/>
			<point x="143" y="133"/>
		</contour>
	</outline>
</glyph>
<glyph name="pi" format="2">
	<unicode hex="03C0"/>
	<advance width="742"/>
	<outline>
		<contour>
			<point x="114" y="-16" type="curve" smooth="yes"/>
			<point x="182" y="-16"/>
			<point x="235" y="20"/>
			<point x="263" y="148" type="curve" smooth="yes"/>
			<point x="284" y="245"/>
			<point x="306" y="343"/>
			<point x="327" y="440" type="curve"/>
			<point x="263" y="440" type="line"/>
			<point x="231" y="324"/>
			<point x="199" y="208"/>
			<point x="167" y="92" type="curve"/>
			<point x="223" y="92" type="line"/>
			<point x="223" y="162" type="line"/>
			<point x="164" y="155"/>
			<point x="104" y="148"/>
			<point x="54" y="140" type="curve"/>
			<point x="37" y="119"/>
			<point x="26" y="96"/>
			<point x="26" y="68" type="curve" smooth="yes"/>
			<point x="26" y="20"/>
			<point x="58" y="-16"/>
		</contour>
		<contour>
			<point x="72" y="358" type="line"/>
			<point x="287" y="384" type="line"/>
			<point x="527" y="384" type="line"/>
			<point x="725" y="374" type="line"/>
			<point x="753" y="526" type="line"/>
			<point x="335" y="526" type="line" smooth="yes"/>
			<point x="203" y="526"/>
			<point x="133" y="494"/>
			<point x="67" y="438" type="curve"/>
		</contour>
		<contour>
			<point x="495" y="-16" type="curve" smooth="yes"/>
			<point x="587" y="-16"/>
			<point x="623" y="20"/>
			<point x="672" y="73" type="curve"/>
			<point x="635" y="118" type="line"/>
			<point x="615" y="98"/>
			<point x="607" y="92"/>
			<point x="586" y="92" type="curve" smooth="yes"/>
			<point x="575" y="92"/>
			<point x="558" y="101"/>
			<point x="558" y="128" type="curve" smooth="yes"/>
			<point x="558" y="152"/>
			<point x="563" y="199"/>
			<point x="608" y="464" type="curve"/>
			<point x="463" y="464" type="line"/>
			<point x="391" y="223"/>
			<point x="370" y="156"/>
			<point x="370" y="104" type="curve" smooth="yes"/>
			<point x="370" y="18"/>
			<point x="406" y="-16"/>
		</contour>
	</outline>
</glyph>
<glyph name="sigma" format="2">
	<unicode hex="03C3"/>
	<advance width="661"/>
	<outline>
		<contour>
			<point x="295" y="-12" type="curve" smooth="yes"/>
			<point x="494" y="-12"/>
			<point x="606" y="133"/>
			<point x="606" y="247" type="curve" smooth="yes"/>
			<point x="606" y="342"/>
			<point x="561" y="391"/>
			<point x="412" y="425" type="curve"/>
			<point x="369" y="416" type="line"/>
			<point x="384" y="393"/>
			<point x="411" y="363"/>
			<point x="411" y="302" type="curve" smooth="yes"/>
			<point x="411" y="192"/>
			<point x="367" y="60"/>
			<point x="295" y="60" type="curve" smooth="yes"/>
			<point x="259" y="60"/>
			<point x="239" y="96"/>
			<point x="239" y="170" type="curve" smooth="yes"/>
			<point x="239" y="306"/>
			<point x="290" y="402"/>
			<point x="415" y="416" type="curve"/>
			<point x="426" y="445" type="line"/>
			<point x="677" y="402" type="line"/>
			<point x="701" y="532" type="line"/>
			<point x="410" y="526" type="line" smooth="yes"/>
			<point x="176" y="522"/>
			<point x="43" y="369"/>
			<point x="43" y="200" type="curve" smooth="yes"/>
			<point x="43" y="60"/>
			<point x="139" y="-12"/>
		</contour>
	</outline>
</glyph>
<glyph name="upsilon" format="2">
	<unicode hex="03C5"/>
	<advance width="609"/>
	<outline>
		<contour>
			<point x="269" y="-16" type="curve" smooth="yes"/>
			<point x="474" y="-16"/>
			<point x="564" y="141"/>
			<point x="564" y="378" type="curve" smooth="yes"/>
			<point x="564" y="456"/>
			<point x="553" y="499"/>
			<point x="545" y="520" type="curve"/>
			<point x="533" y="527"/>
			<point x="519" y="532"/>
			<point x="497" y="532" type="curve" smooth="yes"/>
			<point x="435" y="532"/>
			<point x="399" y="496"/>
			<point x="399" y="432" type="curve" smooth="yes"/>
			<point x="399" y="368"/>
			<point x="423" y="336"/>
			<point x="487" y="232" type="curve"/>
			<point x="497" y="368" type="line"/>
			<point x="481" y="368" type="line"/>
			<point x="481" y="357"/>
			<point x="481" y="347"/>
			<point x="481" y="336" type="curve" smooth="yes"/>
			<point x="481" y="179"/>
			<point x="421" y="64"/>
			<point x="333" y="64" type="curve" smooth="yes"/>
			<point x="287" y="64"/>
			<point x="263" y="89"/>
			<point x="263" y="140" type="curve" smooth="yes"/>
			<point x="263" y="212"/>
			<point x="327" y="332"/>
			<point x="327" y="428" type="curve" smooth="yes"/>
			<point x="327" y="500"/>
			<point x="289" y="532"/>
			<point x="215" y="532" type="curve" smooth="yes"/>
			<point x="142" y="532"/>
			<point x="94" y="496"/>
			<point x="46" y="438" type="curve"/>
			<point x="68" y="394" type="line"/>
			<point x="80" y="400"/>
			<point x="92" y="405"/>
			<point x="102" y="405" type="curve" smooth="yes"/>
			<point x="120" y="405"/>
			<point x="124" y="391"/>
			<point x="124" y="372" type="curve" smooth="yes"/>
			<point x="124" y="324"/>
			<point x="72" y="228"/>
			<point x="72" y="140" type="curve" smooth="yes"/>
			<point x="72" y="41"/>
			<point x="146" y="-16"/>
		</contour>
	</outline>
	<anchor name="aboveLC" x="366" y="536"/>
</glyph>
<glyph name="Dje" format="2">
	<unicode hex="0402"/>
	<advance width="840"/>
	<outline>
		<contour>
			<point x="472" y="-88" type="line"/>
			<point x="688" y="-44"/>
			<point x="792" y="84"/>
			<point x="792" y="208" type="curve" smooth="yes"/>
			<point x="792" y="324"/>
			<point x="712" y="384"/>
			<point x="568" y="384" type="curve" smooth="yes"/>
			<point x="472" y="384"/>
			<point x="416" y="356"/>
			<point x="392" y="340" type="curve"/>
			<point x="392" y="276" type="line"/>
			<point x="416" y="292"/>
			<point x="448" y="308"/>
			<point x="496" y="308" type="curve" smooth="yes"/>
			<point x="568" y="308"/>
			<point x="600" y="276"/>
			<point x="600" y="200" type="curve" smooth="yes"/>
			<point x="600" y="116"/>
			<point x="560" y="20"/>
			<point x="448" y="-36" type="curve"/>
		</contour>
		<contour>
			<point x="80" y="464" type="line"/>
			<point x="164" y="464" type="line"/>
			<point x="248" y="620" type="line"/>
			<point x="148" y="580" type="line"/>
			<point x="664" y="580" type="line"/>
			<point x="596" y="632" type="line"/>
			<point x="624" y="464" type="line"/>
			<point x="704" y="464" type="line"/>
			<point x="732" y="652" type="line"/>
			<point x="120" y="652" type="line"/>
		</contour>
		<contour>
			<point x="140" y="0" type="line"/>
			<point x="288" y="0" type="line"/>
			<point x="288" y="76" type="line"/>
			<point x="272" y="76" type="line"/>
			<point x="154" y="76" type="line"/>
		</contour>
		<contour>
			<point x="208" y="0" type="line"/>
			<point x="404" y="0" type="line"/>
			<point x="421" y="95"/>
			<point x="439" y="189"/>
			<point x="456" y="284" type="curve" smooth="yes"/>
			<point x="524" y="652" type="line"/>
			<point x="328" y="652" type="line"/>
			<point x="311" y="557"/>
			<point x="293" y="463"/>
			<point x="276" y="368" type="curve" smooth="yes"/>
		</contour>
	</outline>
</glyph>
<glyph name="be" format="2">
	<unicode hex="0431"/>
	<advance width="618"/>
	<outline>
		<contour>
			<point x="269" y="-16" type="curve" smooth="yes"/>
			<point x="439" y="-16"/>
			<point x="592" y="112"/>
			<point x="592" y="292" type="curve" smooth="yes"/>
			<point x="592" y="416"/>
			<point x="504" y="476"/>
			<point x="387" y="476" type="curve" smooth="yes"/>
			<point x="242" y="476"/>
			<point x="172" y="380"/>
			<point x="138" y="280" type="curve"/>
			<point x="113" y="285" type="line"/>
			<point x="130" y="392"/>
			<point x="163" y="449"/>
			<point x="205" y="489" type="curve" smooth="yes"/>
			<point x="273" y="553"/>
			<point x="545" y="527"/>
			<point x="606" y="588" type="curve" smooth="yes"/>
			<point x="633" y="615"/>
			<point x="649" y="667"/>
			<point x="670" y="745" type="curve"/>
			<point x="610" y="762" type="line"/>
			<point x="578" y="714" type="line"/>
			<point x="358" y="693"/>
			<point x="249" y="675"/>
			<point x="183" y="609" type="curve" smooth="yes"/>
			<point x="131" y="557"/>
			<point x="44" y="352"/>
			<point x="44" y="201" type="curve" smooth="yes"/>
			<point x="44" y="26"/>
			<point x="132" y="-16"/>
		</contour>
		<contour>
			<point x="281" y="52" type="curve" smooth="yes"/>
			<point x="241" y="52"/>
			<point x="224" y="80"/>
			<point x="224" y="136" type="curve" smooth="yes"/>
			<point x="224" y="190"/>
			<point x="239" y="281"/>
			<point x="271" y="342" type="curve"/>
			<point x="291" y="381"/>
			<point x="318" y="408"/>
			<point x="352" y="408" type="curve" smooth="yes"/>
			<point x="384" y="408"/>
			<point x="400" y="384"/>
			<point x="400" y="332" type="curve" smooth="yes"/>
			<point x="400" y="208"/>
			<point x="353" y="52"/>
		</contour>
	</outline>
</glyph>
<glyph name="ve" format="2">
	<unicode hex="0432"/>
	<advance width="611"/>
	<outline>
		<contour>
			<point x="266" y="-16" type="curve" smooth="yes"/>
			<point x="429" y="-16"/>
			<point x="567" y="48"/>
			<point x="567" y="152" type="curve" smooth="yes"/>
			<point x="567" y="225"/>
			<point x="485" y="242"/>
			<point x="392" y="247" type="curve"/>
			<point x="384" y="266" type="line"/>
			<point x="351" y="256" type="line"/>
			<point x="367" y="232"/>
			<point x="383" y="200"/>
			<point x="383" y="152" type="curve" smooth="yes"/>
			<point x="383" y="88"/>
			<point x="345" y="48"/>
			<point x="291" y="48" type="curve" smooth="yes"/>
			<point x="245" y="48"/>
			<point x="227" y="72"/>
			<point x="227" y="136" type="curve" smooth="yes"/>
			<point x="227" y="228"/>
			<point x="255" y="328"/>
			<point x="287" y="384" type="curve" smooth="yes"/>
			<point x="319" y="440"/>
			<point x="344" y="468"/>
			<point x="378" y="468" type="curve" smooth="yes"/>
			<point x="408" y="468"/>
			<point x="424" y="444"/>
			<point x="424" y="412" type="curve" smooth="yes"/>
			<point x="424" y="340"/>
			<point x="375" y="280"/>
			<point x="207" y="272" type="curve"/>
			<point x="207" y="232" type="line"/>
			<point x="455" y="256"/>
			<point x="596" y="308"/>
			<point x="596" y="412" type="curve" smooth="yes"/>
			<point x="596" y="484"/>
			<point x="528" y="532"/>
			<point x="400" y="532" type="curve" smooth="yes"/>
			<point x="296" y="532"/>
			<point x="211" y="498"/>
			<point x="151" y="442" type="curve" smooth="yes"/>
			<point x="91" y="386"/>
			<point x="39" y="292"/>
			<point x="39" y="169" type="curve" smooth="yes"/>
			<point x="39" y="44"/>
			<point x="93" y="-16"/>
		</contour>
	</outline>
</glyph>
<glyph name="tse" format="2">
	<unicode hex="0446"/>
	<advance width="715"/>
	<outline>
		<contour>
			<point x="470" y="-240" type="line"/>
			<point x="590" y="-224"/>
			<point x="638" y="-192"/>
			<point x="638" y="-112" type="curve" smooth="yes"/>
			<point x="638" y="-72" type="line" smooth="yes"/>
			<point x="638" y="-8"/>
			<point x="654" y="24"/>
			<point x="706" y="112" type="curve"/>
			<point x="674" y="112" type="line"/>
			<point x="598" y="40" type="line"/>
			<point x="622" y="-2" type="line"/>
			<point x="558" y="-42"/>
			<point x="539" y="-68"/>
			<point x="522" y="-114" type="curve" smooth="yes"/>
			<point x="514" y="-136" type="line" smooth="yes"/>
			<point x="503" y="-167"/>
			<point x="482" y="-184"/>
			<point x="454" y="-192" type="curve"/>
		</contour>
		<component base="icyr"/>
	</outline>
	<anchor name="aboveLC" x="405" y="536"/>
</glyph>
<glyph name="che" format="2">
	<unicode hex="0447"/>
	<advance width="663"/>
	<outline>
		<contour>
			<point x="176" y="148" type="curve" smooth="yes"/>
			<point x="265" y="148"/>
			<point x="296" y="185"/>
			<point x="348" y="260" type="curve"/>
			<point x="420" y="260" type="line"/>
			<point x="420" y="316" type="line"/>
			<point x="384" y="296"/>
			<point x="348" y="280"/>
			<point x="316" y="280" type="curve" smooth="yes"/>
			<point x="280" y="280"/>
			<point x="264" y="296"/>
			<point x="264" y="324" type="curve" smooth="yes"/>
			<point x="264" y="348"/>
			<point x="276" y="388"/>
			<point x="308" y="516" type="curve"/>
			<point x="252" y="532" type="line"/>
			<point x="27" y="460" type="line"/>
			<point x="13" y="392" type="line"/>
			<point x="156" y="392" type="line"/>
			<point x="92" y="424" type="line"/>
			<point x="72" y="344"/>
			<point x="60" y="288"/>
			<point x="60" y="256" type="curve" smooth="yes"/>
			<point x="60" y="184"/>
			<point x="104" y="148"/>
		</contour>
		<contour>
			<point x="471" y="-16" type="curve" smooth="yes"/>
			<point x="578" y="-16"/>
			<point x="625" y="51"/>
			<point x="665" y="117" type="curve"/>
			<point x="616" y="148" type="line"/>
			<point x="592" y="112"/>
			<point x="584" y="96"/>
			<point x="564" y="96" type="curve" smooth="yes"/>
			<point x="548" y="96"/>
			<point x="540" y="106"/>
			<point x="540" y="122" type="curve" smooth="yes"/>
			<point x="540" y="136"/>
			<point x="546" y="164"/>
			<point x="552" y="192" type="curve" smooth="yes"/>
			<point x="624" y="516" type="line"/>
			<point x="576" y="532" type="line"/>
			<point x="426" y="506" type="line"/>
			<point x="415" y="454"/>
			<point x="406" y="412"/>
			<point x="394" y="360" type="curve" smooth="yes"/>
			<point x="356" y="189" type="line" smooth="yes"/>
			<point x="349" y="158"/>
			<point x="341" y="128"/>
			<point x="341" y="85" type="curve" smooth="yes"/>
			<point x="341" y="17"/>
			<point x="382" y="-16"/>
		</contour>
	</outline>
	<anchor name="aboveLC" x="346" y="536"/>
</glyph>
<glyph name="shcha" format="2">
	<unicode hex="0449"/>
	<advance width="1042"/>
	<outline>
		<contour>
			<point x="797" y="-240" type="line"/>
			<point x="917" y="-224"/>
			<point x="965" y="-192"/>
			<point x="965" y="-112" type="curve" smooth="yes"/>
			<point x="965" y="-72" type="line" smooth="yes"/>
			<point x="965" y="-8"/>
			<point x="981" y="24"/>
			<point x="1033" y="112" type="curve"/>
			<point x="1001" y="112" type="line"/>
			<point x="925" y="40" type="line"/>
			<point x="953" y="0" type="line"/>
			<point x="889" y="-40"/>
			<point x="874" y="-70"/>
			<point x="853" y="-112" type="curve" smooth="yes"/>
			<point x="841" y="-136" type="line" smooth="yes"/>
			<point x="826" y="-166"/>
			<point x="809" y="-184"/>
			<point x="781" y="-192" type="curve"/>
		</contour>
		<component base="sha"/>
	</outline>
</glyph>
<glyph name="gheup" format="2">
	<unicode hex="0491"/>
	<advance width="453"/>
	<outline>
		<contour>
			<point x="146" y="-16" type="curve" smooth="yes"/>
			<point x="242" y="-16"/>
			<point x="303" y="33"/>
			<point x="322" y="160" type="curve" smooth="yes"/>
			<point x="354" y="376" type="line" smooth="yes"/>
			<point x="362" y="432"/>
			<point x="378" y="456"/>
			<point x="442" y="464" type="curve" smooth="yes"/>
			<point x="474" y="468" type="line"/>
			<point x="498" y="622" type="line"/>
			<point x="426" y="628" type="line"/>
			<point x="362" y="492" type="line"/>
			<point x="410" y="524" type="line"/>
			<point x="346" y="516" type="line" smooth="yes"/>
			<point x="250" y="504"/>
			<point x="174" y="472"/>
			<point x="154" y="336" type="curve" smooth="yes"/>
			<point x="122" y="120" type="line" smooth="yes"/>
			<point x="118" y="92"/>
			<point x="106" y="80"/>
			<point x="86" y="80" type="curve" smooth="yes"/>
			<point x="64" y="80"/>
			<point x="53" y="92"/>
			<point x="38" y="106" type="curve"/>
			<point x="0" y="69" type="line"/>
			<point x="30" y="23"/>
			<point x="70" y="-16"/>
		</contour>
	</outline>
</glyph>
<glyph name="Kadescender" format="2">
	<unicode hex="049A"/>
	<advance width="734"/>
	<outline>
		<contour>
			<point x="561" y="0" type="line"/>
			<point x="627" y="0" type="line"/>
			<point x="598" y="52" type="line"/>
			<point x="614" y="-184" type="line"/>
			<point x="694" y="-184" type="line"/>
			<point x="730" y="68" type="line"/>
			<point x="541" y="85" type="line"/>
		</contour>
		<component base="Ka"/>
	</outline>
</glyph>
<glyph name="Endescender" format="2">
	<unicode hex="04A2"/>
	<advance width="824"/>
	<outline>
		<contour>
			<point x="578" y="0" type="line"/>
			<point x="750" y="0" type="line"/>
			<point x="646" y="52" type="line"/>
			<point x="646" y="-184" type="line"/>
			<point x="726" y="-184" type="line"/>
			<point x="774" y="76" type="line"/>
			<point x="578" y="72" type="line"/>
		</contour>
		<component base="En"/>
	</outline>
</glyph>
<glyph name="Hadescender" format="2">
	<unicode hex="04B2"/>
	<advance width="666"/>
	<outline>
		<contour>
			<point x="445" y="0" type="line"/>
			<point x="617" y="0" type="line"/>
			<point x="513" y="52" type="line"/>
			<point x="513" y="-184" type="line"/>
			<point x="593" y="-184" type="line"/>
			<point x="641" y="76" type="line"/>
			<point x="445" y="72" type="line"/>
		</contour>
		<component base="Ha"/>
	</outline>
</glyph>
<glyph name="hadescender" format="2">
	<unicode hex="04B3"/>
	<advance width="651"/>
	<outline>
		<contour>
			<point x="378" y="-240" type="line"/>
			<point x="498" y="-224"/>
			<point x="546" y="-192"/>
			<point x="546" y="-112" type="curve" smooth="yes"/>
			<point x="546" y="-72" type="line" smooth="yes"/>
			<point x="546" y="-8"/>
			<point x="564" y="26"/>
			<point x="616" y="118" type="curve"/>
			<point x="584" y="118" type="line"/>
			<point x="506" y="40" type="line"/>
			<point x="538" y="-3" type="line"/>
			<point x="463" y="-50"/>
			<point x="439" y="-73"/>
			<point x="428" y="-114" type="curve" smooth="yes"/>
			<point x="422" y="-136" type="line" smooth="yes"/>
			<point x="413" y="-168"/>
			<point x="390" y="-184"/>
			<point x="362" y="-192" type="curve"/>
		</contour>
		<component base="ha"/>
	</outline>
</glyph>
<glyph name="Chedescender" format="2">
	<unicode hex="04B6"/>
	<advance width="774"/>
	<outline>
		<contour>
			<point x="541" y="0" type="line"/>
			<point x="713" y="0" type="line"/>
			<point x="609" y="52" type="line"/>
			<point x="609" y="-184" type="line"/>
			<point x="689" y="-184" type="line"/>
			<point x="737" y="76" type="line"/>
			<point x="541" y="72" type="line"/>
		</contour>
		<component base="Che"/>
	</outline>
</glyph>
<glyph name="chedescender" format="2">
	<unicode hex="04B7"/>
	<advance width="681"/>
	<outline>
		<contour>
			<point x="437" y="-240" type="line"/>
			<point x="557" y="-224"/>
			<point x="605" y="-192"/>
			<point x="605" y="-112" type="curve" smooth="yes"/>
			<point x="605" y="-72" type="line" smooth="yes"/>
			<point x="605" y="-8"/>
			<point x="626" y="29"/>
			<point x="675" y="117" type="curve"/>
			<point x="641" y="112" type="line"/>
			<point x="565" y="40" type="line"/>
			<point x="593" y="0" type="line"/>
			<point x="531" y="-38"/>
			<point x="501" y="-56"/>
			<point x="489" y="-104" type="curve" smooth="yes"/>
			<point x="481" y="-136" type="line" smooth="yes"/>
			<point x="473" y="-168"/>
			<point x="449" y="-184"/>
			<point x="421" y="-192" type="curve"/>
		</contour>
		<component base="che"/>
	</outline>
</glyph>
<glyph name="b.sups" format="2">
	<unicode hex="1D47"/>
	<advance width="466"/>
	<outline>
		<contour>
			<point x="242" y="404" type="curve" smooth="yes"/>
			<point x="391" y="404"/>
			<point x="511" y="541"/>
			<point x="511" y="657" type="curve" smooth="yes"/>
			<point x="511" y="730"/>
			<point x="475" y="775"/>
			<point x="406" y="775" type="curve" smooth="yes"/>
			<point x="352" y="775"/>
			<point x="320" y="740"/>
			<point x="301" y="704" type="curve"/>
			<point x="268" y="704" type="line"/>
			<point x="268" y="656" type="line"/>
			<point x="291" y="671"/>
			<point x="308" y="683"/>
			<point x="338" y="683" type="curve" smooth="yes"/>
			<point x="357" y="683"/>
			<point x="374" y="668"/>
			<point x="374" y="636" type="curve" smooth="yes"/>
			<point x="374" y="540"/>
			<point x="338" y="467"/>
			<point x="289" y="467" type="curve" smooth="yes"/>
			<point x="264" y="467"/>
			<point x="253" y="481"/>
			<point x="253" y="508" type="curve" smooth="yes"/>
			<point x="253" y="529"/>
			<point x="259" y="545"/>
			<point x="265" y="571" type="curve" smooth="yes"/>
			<point x="290" y="688" type="line"/>
			<point x="280" y="688" type="line"/>
			<point x="330" y="894" type="line"/>
			<point x="294" y="894" type="line"/>
			<point x="137" y="872" type="line"/>
			<point x="127" y="826" type="line"/>
			<point x="231" y="816" type="line"/>
			<point x="185" y="830" type="line"/>
			<point x="136" y="619" type="line" smooth="yes"/>
			<point x="127" y="582"/>
			<point x="117" y="549"/>
			<point x="117" y="509" type="curve" smooth="yes"/>
			<point x="117" y="437"/>
			<point x="159" y="404"/>
		</contour>
	</outline>
</glyph>
<glyph name="u.sups" format="2">
	<unicode hex="1D58"/>
	<advance width="515"/>
	<outline>
		<contour>
			<point x="205" y="404" type="curve" smooth="yes"/>
			<point x="274" y="404"/>
			<point x="310" y="434"/>
			<point x="339" y="476" type="curve"/>
			<point x="370" y="476" type="line"/>
			<point x="371" y="518" type="line"/>
			<point x="342" y="504"/>
			<point x="321" y="495"/>
			<point x="295" y="495" type="curve" smooth="yes"/>
			<point x="276" y="495"/>
			<point x="266" y="507"/>
			<point x="266" y="522" type="curve" smooth="yes"/>
			<point x="266" y="532"/>
			<point x="269" y="543"/>
			<point x="274" y="564" type="curve" smooth="yes"/>
			<point x="323" y="764" type="line"/>
			<point x="255" y="771" type="line"/>
			<point x="114" y="726" type="line"/>
			<point x="105" y="679" type="line"/>
			<point x="215" y="679" type="line"/>
			<point x="169" y="700" type="line"/>
			<point x="133" y="559" type="line" smooth="yes"/>
			<point x="128" y="538"/>
			<point x="122" y="511"/>
			<point x="122" y="476" type="curve" smooth="yes"/>
			<point x="122" y="440"/>
			<point x="144" y="404"/>
		</contour>
		<contour>
			<point x="440" y="404" type="curve" smooth="yes"/>
			<point x="514" y="404"/>
			<point x="552" y="448"/>
			<point x="580" y="491" type="curve"/>
			<point x="540" y="515" type="line"/>
			<point x="524" y="492"/>
			<point x="519" y="481"/>
			<point x="505" y="481" type="curve" smooth="yes"/>
			<point x="483" y="481"/>
			<point x="486" y="498"/>
			<point x="497" y="545" type="curve" smooth="yes"/>
			<point x="547" y="764" type="line"/>
			<point x="513" y="771" type="line"/>
			<point x="405" y="757" type="line"/>
			<point x="347" y="492" type="line"/>
			<point x="356" y="492" type="line"/>
			<point x="356" y="488"/>
			<point x="356" y="485"/>
			<point x="356" y="482" type="curve" smooth="yes"/>
			<point x="356" y="429"/>
			<point x="379" y="404"/>
		</contour>
	</outline>
</glyph>
<glyph name="z.sups" format="2">
	<unicode hex="1DBB"/>
	<advance width="426"/>
	<outline>
		<contour>
			<point x="321" y="393" type="curve" smooth="yes"/>
			<point x="386" y="393"/>
			<point x="471" y="469"/>
			<point x="471" y="566" type="curve" smooth="yes"/>
			<point x="471" y="589"/>
			<point x="463" y="607"/>
			<point x="436" y="620" type="curve"/>
			<point x="399" y="620"/>
			<point x="372" y="600"/>
			<point x="372" y="568" type="curve" smooth="yes"/>
			<point x="372" y="535"/>
			<point x="399" y="518"/>
			<point x="436" y="519" type="curve"/>
			<point x="435" y="481" type="line"/>
			<point x="439" y="504" type="line"/>
			<point x="428" y="501"/>
			<point x="411" y="498"/>
			<point x="384" y="498" type="curve" smooth="yes"/>
			<point x="321" y="498"/>
			<point x="248" y="517"/>
			<point x="199" y="542" type="curve"/>
			<point x="170" y="524" type="line"/>
			<point x="194" y="454"/>
			<point x="245" y="393"/>
		</contour>
		<contour>
			<point x="163" y="415" type="line"/>
			<point x="187" y="497" type="line"/>
			<point x="246" y="542"/>
			<point x="354" y="605"/>
			<point x="416" y="652" type="curve" smooth="yes"/>
			<point x="465" y="690"/>
			<point x="491" y="729"/>
			<point x="503" y="761" type="curve"/>
			<point x="481" y="778" type="line"/>
			<point x="413" y="764" type="line"/>
			<point x="389" y="682" type="line"/>
			<point x="330" y="637"/>
			<point x="221" y="574"/>
			<point x="159" y="527" type="curve" smooth="yes"/>
			<point x="110" y="489"/>
			<point x="85" y="450"/>
			<point x="73" y="418" type="curve"/>
			<point x="94" y="401" type="line"/>
		</contour>
		<contour>
			<point x="120" y="592" type="line"/>
			<point x="164" y="584" type="line"/>
			<point x="213" y="714" type="line"/>
			<point x="171" y="664" type="line"/>
			<point x="224" y="653"/>
			<point x="286" y="642"/>
			<point x="339" y="631" type="curve"/>
			<point x="426" y="685" type="line"/>
			<point x="365" y="722"/>
			<point x="283" y="752"/>
			<point x="214" y="775" type="curve"/>
			<point x="134" y="715" type="line"/>
		</contour>
	</outline>
</glyph>
<glyph name="dagger" format="2">
	<unicode hex="2020"/>
	<advance width="504"/>
	<outline>
		<contour>
			<point x="74" y="489" type="curve" smooth="yes"/>
			<point x="74" y="448"/>
			<point x="102" y="415"/>
			<point x="148" y="415" type="curve" smooth="yes"/>
			<point x="182" y="415"/>
			<point x="218" y="433"/>
			<point x="253" y="458" type="curve" smooth="yes"/>
			<point x="282" y="478" type="line"/>
			<point x="282" y="508" type="line"/>
			<point x="263" y="524" type="line" smooth="yes"/>
			<point x="229" y="553"/>
			<point x="198" y="574"/>
			<point x="158" y="574" type="curve" smooth="yes"/>
			<point x="109" y="574"/>
			<point x="74" y="538"/>
		</contour>
		<contour>
			<point x="193" y="-58" type="curve"/>
			<point x="231" y="-58" type="line"/>
			<point x="283" y="50"/>
			<point x="304" y="101"/>
			<point x="331" y="173" type="curve" smooth="yes"/>
			<point x="350" y="224"/>
			<point x="363" y="274"/>
			<point x="363" y="310" type="curve" smooth="yes"/>
			<point x="363" y="351"/>
			<point x="361" y="397"/>
			<point x="328" y="458" type="curve"/>
			<point x="298" y="458" type="line"/>
			<point x="210" y="364"/>
			<point x="183" y="281"/>
			<point x="183" y="146" type="curve" smooth="yes"/>
			<point x="183" y="91"/>
			<point x="187" y="43"/>
		</contour>
		<contour>
			<point x="347" y="732" type="curve" smooth="yes"/>
			<point x="296" y="732"/>
			<point x="262" y="698"/>
			<point x="262" y="645" type="curve" smooth="yes"/>
			<point x="262" y="613"/>
			<point x="278" y="579"/>
			<point x="294" y="549" type="curve" smooth="yes"/>
			<point x="309" y="520" type="line"/>
			<point x="339" y="520" type="line"/>
			<point x="365" y="554" type="line" smooth="yes"/>
			<point x="396" y="595"/>
			<point x="423" y="627"/>
			<point x="423" y="664" type="curve" smooth="yes"/>
			<point x="423" y="701"/>
			<point x="399" y="732"/>
		</contour>
		<contour>
			<point x="558" y="498" type="curve" smooth="yes"/>
			<point x="558" y="544"/>
			<point x="530" y="572"/>
			<point x="483" y="572" type="curve" smooth="yes"/>
			<point x="452" y="572"/>
			<point x="427" y="554"/>
			<point x="386" y="526" type="curve" smooth="yes"/>
			<point x="354" y="504" type="line"/>
			<point x="354" y="474" type="line"/>
			<point x="362" y="466" type="line" smooth="yes"/>
			<point x="391" y="439"/>
			<point x="429" y="416"/>
			<point x="478" y="416" type="curve" smooth="yes"/>
			<point x="521" y="416"/>
			<point x="558" y="447"/>
		</contour>
	</outline>
</glyph>
<glyph name="bullet" format="2">
	<unicode hex="2022"/>
	<advance width="340"/>
	<outline>
		<contour>
			<point x="173" y="180" type="curve" smooth="yes"/>
			<point x="259" y="180"/>
			<point x="331" y="252"/>
			<point x="331" y="348" type="curve" smooth="yes"/>
			<point x="331" y="416"/>
			<point x="287" y="460"/>
			<point x="217" y="460" type="curve" smooth="yes"/>
			<point x="131" y="460"/>
			<point x="59" y="388"/>
			<point x="59" y="292" type="curve" smooth="yes"/>
			<point x="59" y="224"/>
			<point x="103" y="180"/>
		</contour>
	</outline>
</glyph>
<glyph name="fraction" format="2">
	<unicode hex="2044"/>
	<unicode hex="2215"/>
	<advance width="190"/>
	<outline>
		<contour>
			<point x="-89" y="-20" type="line"/>
			<point x="387" y="632" type="line"/>
			<point x="331" y="672" type="line"/>
			<point x="-145" y="20" type="line"/>
		</contour>
	</outline>
</glyph>
<glyph name="four.sups" format="2">
	<unicode hex="2074"/>
	<advance width="442"/>
	<outline>
		<contour>
			<point x="269" y="408" type="line"/>
			<point x="400" y="408" type="line"/>
			<point x="490" y="839" type="line"/>
			<point x="379" y="839" type="line"/>
			<point x="121" y="565" type="line"/>
			<point x="110" y="492" type="line"/>
			<point x="488" y="492" type="line"/>
			<point x="503" y="565" type="line"/>
			<point x="168" y="565" type="line"/>
			<point x="168" y="607" type="line"/>
			<point x="147" y="555" type="line"/>
			<point x="259" y="656" type="line"/>
			<point x="363" y="786" type="line"/>
			<point x="312" y="764" type="line"/>
			<point x="355" y="764" type="line"/>
			<point x="306" y="543" type="line"/>
			<point x="295" y="529" type="line"/>
		</contour>
	</outline>
</glyph>
<glyph name="five.sups" format="2">
	<unicode hex="2075"/>
	<advance width="442"/>
	<outline>
		<contour>
			<point x="245" y="404" type="curve" smooth="yes"/>
			<point x="392" y="404"/>
			<point x="470" y="469"/>
			<point x="469" y="555" type="curve" smooth="yes"/>
			<point x="469" y="636"/>
			<point x="407" y="677"/>
			<point x="325" y="677" type="curve" smooth="yes"/>
			<point x="282" y="677"/>
			<point x="245" y="668"/>
			<point x="222" y="651" type="curve"/>
			<point x="210" y="656" type="line"/>
			<point x="258" y="815" type="line"/>
			<point x="222" y="743" type="line"/>
			<point x="470" y="743" type="line"/>
			<point x="491" y="839" type="line"/>
			<point x="219" y="839" type="line"/>
			<point x="156" y="623" type="line"/>
			<point x="189" y="606" type="line"/>
			<point x="201" y="614"/>
			<point x="219" y="622"/>
			<point x="246" y="622" type="curve" smooth="yes"/>
			<point x="296" y="622"/>
			<point x="319" y="595"/>
			<point x="319" y="544" type="curve" smooth="yes"/>
			<point x="319" y="486"/>
			<point x="282" y="448"/>
			<point x="217" y="448" type="curve" smooth="yes"/>
			<point x="199" y="448"/>
			<point x="188" y="451"/>
			<point x="176" y="453" type="curve"/>
			<point x="217" y="424" type="line"/>
			<point x="214" y="494" type="line" smooth="yes"/>
			<point x="212" y="538"/>
			<point x="189" y="551"/>
			<point x="160" y="551" type="curve" smooth="yes"/>
			<point x="126" y="551"/>
			<point x="112" y="537"/>
			<point x="104" y="508" type="curve"/>
			<point x="111" y="445"/>
			<point x="160" y="404"/>
		</contour>
	</outline>
</glyph>
<glyph name="parenleft.sups" format="2">
	<unicode hex="207D"/>
	<advance width="284"/>
	<outline>
		<contour>
			<point x="245" y="308" type="curve"/>
			<point x="286" y="337" type="line"/>
			<point x="252" y="399"/>
			<point x="236" y="458"/>
			<point x="236" y="544" type="curve" smooth="yes"/>
			<point x="236" y="646"/>
			<point x="279" y="776"/>
			<point x="387" y="859" type="curve"/>
			<point x="359" y="898" type="line"/>
			<point x="217" y="826"/>
			<point x="122" y="696"/>
			<point x="122" y="562" type="curve" smooth="yes"/>
			<point x="122" y="436"/>
			<point x="184" y="361"/>
		</contour>
	</outline>
</glyph>
<glyph name="parenright.sups" format="2">
	<unicode hex="207E"/>
	<advance width="284"/>
	<outline>
		<contour>
			<point x="169" y="898" type="curve"/>
			<point x="128" y="869" type="line"/>
			<point x="163" y="806"/>
			<point x="179" y="747"/>
			<point x="179" y="661" type="curve" smooth="yes"/>
			<point x="179" y="560"/>
			<point x="135" y="429"/>
			<point x="27" y="346" type="curve"/>
			<point x="56" y="308" type="line"/>
			<point x="198" y="380"/>
			<point x="293" y="510"/>
			<point x="293" y="644" type="curve" smooth="yes"/>
			<point x="293" y="769"/>
			<point x="231" y="845"/>
		</contour>
	</outline>
</glyph>
<glyph name="n.sups" format="2">
	<unicode hex="207F"/>
	<advance width="509"/>
	<outline>
		<contour>
			<point x="139" y="404" type="line"/>
			<point x="245" y="415" type="line"/>
			<point x="301" y="664" type="line"/>
			<point x="289" y="664" type="line"/>
			<point x="305" y="764" type="line"/>
			<point x="262" y="771" type="line"/>
			<point x="114" y="726" type="line"/>
			<point x="104" y="679" type="line"/>
			<point x="209" y="679" type="line"/>
			<point x="169" y="700" type="line"/>
			<point x="105" y="415" type="line"/>
		</contour>
		<contour>
			<point x="433" y="404" type="curve" smooth="yes"/>
			<point x="512" y="404"/>
			<point x="548" y="452"/>
			<point x="574" y="495" type="curve"/>
			<point x="540" y="515" type="line"/>
			<point x="524" y="491"/>
			<point x="519" y="481"/>
			<point x="505" y="481" type="curve" smooth="yes"/>
			<point x="483" y="481"/>
			<point x="486" y="502"/>
			<point x="496" y="540" type="curve" smooth="yes"/>
			<point x="518" y="628" type="line" smooth="yes"/>
			<point x="524" y="650"/>
			<point x="530" y="671"/>
			<point x="530" y="702" type="curve" smooth="yes"/>
			<point x="530" y="744"/>
			<point x="504" y="775"/>
			<point x="453" y="775" type="curve" smooth="yes"/>
			<point x="390" y="775"/>
			<point x="343" y="740"/>
			<point x="306" y="686" type="curve"/>
			<point x="278" y="686" type="line"/>
			<point x="278" y="644" type="line"/>
			<point x="310" y="669"/>
			<point x="332" y="681"/>
			<point x="355" y="681" type="curve" smooth="yes"/>
			<point x="374" y="681"/>
			<point x="384" y="672"/>
			<point x="384" y="658" type="curve" smooth="yes"/>
			<point x="384" y="648"/>
			<point x="381" y="639"/>
			<point x="376" y="617" type="curve" smooth="yes"/>
			<point x="359" y="552" type="line" smooth="yes"/>
			<point x="354" y="530"/>
			<point x="346" y="505"/>
			<point x="346" y="475" type="curve" smooth="yes"/>
			<point x="346" y="433"/>
			<point x="366" y="404"/>
		</contour>
	</outline>
</glyph>
<glyph name="colonmonetary" format="2">
	<unicode hex="20A1"/>
	<advance width="600"/>
	<outline>
		<contour>
			<point x="303" y="-12" type="curve" smooth="yes"/>
			<point x="439" y="-12"/>
			<point x="513" y="56"/>
			<point x="532" y="152" type="curve"/>
			<point x="525" y="168"/>
			<point x="509" y="184"/>
			<point x="477" y="184" type="curve" smooth="yes"/>
			<point x="445" y="184"/>
			<point x="421" y="168"/>
			<point x="407" y="112" type="curve" smooth="yes"/>
			<point x="384" y="16" type="line"/>
			<point x="425" y="56" type="line"/>
			<point x="409" y="52"/>
			<point x="377" y="48"/>
			<point x="353" y="48" type="curve" smooth="yes"/>
			<point x="241" y="48"/>
			<point x="215" y="112"/>
			<point x="215" y="232" type="curve" smooth="yes"/>
			<point x="215" y="392"/>
			<point x="299" y="580"/>
			<point x="459" y="580" type="curve" smooth="yes"/>
			<point x="491" y="580"/>
			<point x="523" y="576"/>
			<point x="539" y="572" type="curve"/>
			<point x="484" y="612" type="line"/>
			<point x="488" y="513" type="line" smooth="yes"/>
			<point x="490" y="463"/>
			<point x="508" y="444"/>
			<point x="543" y="444" type="curve" smooth="yes"/>
			<point x="577" y="444"/>
			<point x="597" y="467"/>
			<point x="602" y="494" type="curve"/>
			<point x="597" y="573"/>
			<point x="544" y="640"/>
			<point x="429" y="640" type="curve" smooth="yes"/>
			<point x="213" y="640"/>
			<point x="55" y="448"/>
			<point x="55" y="240" type="curve" smooth="yes"/>
			<point x="55" y="80"/>
			<point x="147" y="-12"/>
		</contour>
		<contour>
			<point x="175" y="-116" type="line"/>
			<point x="227" y="-116" type="line"/>
			<point x="437" y="744" type="line"/>
			<point x="385" y="744" type="line"/>
		</contour>
		<contour>
			<point x="271" y="-116" type="line"/>
			<point x="323" y="-116" type="line"/>
			<point x="533" y="744" type="line"/>
			<point x="481" y="744" type="line"/>
		</contour>
	</outline>
</glyph>
<glyph name="numero" format="2">
	<unicode hex="2116"/>
	<advance width="1192"/>
	<outline>
		<contour>
			<point x="100" y="-36" type="curve" smooth="yes"/>
			<point x="192" y="-36"/>
			<point x="236" y="36"/>
			<point x="260" y="204" type="curve" smooth="yes"/>
			<point x="320" y="620" type="line"/>
			<point x="254" y="620" type="line"/>
			<point x="184" y="220" type="line" smooth="yes"/>
			<point x="164" y="108"/>
			<point x="156" y="76"/>
			<point x="136" y="44" type="curve"/>
			<point x="176" y="44" type="line"/>
			<point x="176" y="52" type="line"/>
			<point x="152" y="92"/>
			<point x="128" y="112"/>
			<point x="84" y="112" type="curve" smooth="yes"/>
			<point x="40" y="112"/>
			<point x="8" y="80"/>
			<point x="0" y="40" type="curve"/>
			<point x="8" y="-8"/>
			<point x="44" y="-36"/>
		</contour>
		<contour>
			<point x="424" y="0" type="line"/>
			<point x="608" y="0" type="line"/>
			<point x="680" y="408" type="line" smooth="yes"/>
			<point x="700" y="520"/>
			<point x="708" y="552"/>
			<point x="728" y="584" type="curve"/>
			<point x="688" y="584" type="line"/>
			<point x="688" y="576" type="line"/>
			<point x="712" y="536"/>
			<point x="736" y="516"/>
			<point x="780" y="516" type="curve" smooth="yes"/>
			<point x="824" y="516"/>
			<point x="856" y="548"/>
			<point x="864" y="588" type="curve"/>
			<point x="856" y="636"/>
			<point x="820" y="664"/>
			<point x="764" y="664" type="curve" smooth="yes"/>
			<point x="672" y="664"/>
			<point x="628" y="592"/>
			<point x="604" y="424" type="curve" smooth="yes"/>
			<point x="562" y="130" type="line"/>
			<point x="572" y="132" type="line"/>
			<point x="476" y="628" type="line"/>
			<point x="178" y="628" type="line"/>
			<point x="164" y="552" type="line"/>
			<point x="328" y="552" type="line"/>
			<point x="300" y="596" type="line"/>
		</contour>
		<contour>
			<point x="720" y="0" type="line"/>
			<point x="1048" y="0" type="line"/>
			<point x="1066" y="100" type="line"/>
			<point x="738" y="100" type="line"/>
		</contour>
		<contour>
			<point x="916" y="168" type="curve" smooth="yes"/>
			<point x="1060" y="168"/>
			<point x="1144" y="264"/>
			<point x="1144" y="368" type="curve" smooth="yes"/>
			<point x="1144" y="464"/>
			<point x="1072" y="504"/>
			<point x="976" y="504" type="curve" smooth="yes"/>
			<point x="832" y="504"/>
			<point x="748" y="408"/>
			<point x="748" y="304" type="curve" smooth="yes"/>
			<point x="748" y="208"/>
			<point x="820" y="168"/>
		</contour>
		<contour>
			<point x="924" y="224" type="curve" smooth="yes"/>
			<point x="900" y="224"/>
			<point x="888" y="240"/>
			<point x="888" y="280" type="curve" smooth="yes"/>
			<point x="888" y="376"/>
			<point x="928" y="448"/>
			<point x="968" y="448" type="curve" smooth="yes"/>
			<point x="992" y="448"/>
			<point x="1004" y="432"/>
			<point x="1004" y="392" type="curve" smooth="yes"/>
			<point x="1004" y="296"/>
			<point x="964" y="224"/>
		</contour>
	</outline>
</glyph>
<glyph name="servicemark" format="2">
	<unicode hex="2120"/>
	<advance width="798"/>
	<outline>
		<contour>
			<point x="199" y="319" type="curve" smooth="yes"/>
			<point x="279" y="319"/>
			<point x="348" y="353"/>
			<point x="348" y="421" type="curve" smooth="yes"/>
			<point x="348" y="475"/>
			<point x="310" y="499"/>
			<point x="260" y="531" type="curve" smooth="yes"/>
			<point x="223" y="554"/>
			<point x="214" y="566"/>
			<point x="214" y="584" type="curve" smooth="yes"/>
			<point x="214" y="604"/>
			<point x="236" y="623"/>
			<point x="275" y="623" type="curve" smooth="yes"/>
			<point x="308" y="623"/>
			<point x="322" y="619"/>
			<point x="340" y="612" type="curve"/>
			<point x="301" y="640" type="line"/>
			<point x="316" y="564" type="line"/>
			<point x="358" y="564" type="line"/>
			<point x="373" y="640" type="line"/>
			<point x="354" y="652"/>
			<point x="312" y="660"/>
			<point x="267" y="660" type="curve" smooth="yes"/>
			<point x="179" y="660"/>
			<point x="126" y="621"/>
			<point x="126" y="562" type="curve" smooth="yes"/>
			<point x="126" y="503"/>
			<point x="162" y="482"/>
			<point x="213" y="449" type="curve" smooth="yes"/>
			<point x="248" y="428"/>
			<point x="258" y="415"/>
			<point x="258" y="395" type="curve" smooth="yes"/>
			<point x="258" y="377"/>
			<point x="239" y="356"/>
			<point x="202" y="356" type="curve" smooth="yes"/>
			<point x="171" y="356"/>
			<point x="145" y="360"/>
			<point x="127" y="368" type="curve"/>
			<point x="165" y="339" type="line"/>
			<point x="150" y="421" type="line"/>
			<point x="107" y="421" type="line"/>
			<point x="91" y="340" type="line"/>
			<point x="109" y="332"/>
			<point x="153" y="319"/>
		</contour>
		<contour>
			<point x="371" y="327" type="line"/>
			<point x="488" y="327" type="line"/>
			<point x="495" y="368" type="line"/>
			<point x="446" y="368" type="line"/>
			<point x="421" y="368" type="line"/>
			<point x="378" y="368" type="line"/>
		</contour>
		<contour>
			<point x="407" y="327" type="line"/>
			<point x="449" y="327" type="line"/>
			<point x="506" y="634" type="line"/>
			<point x="472" y="634" type="line"/>
		</contour>
		<contour>
			<point x="528" y="327" type="line"/>
			<point x="599" y="327" type="line"/>
			<point x="715" y="601" type="line"/>
			<point x="744" y="601" type="line"/>
			<point x="753" y="652" type="line"/>
			<point x="705" y="652" type="line"/>
			<point x="624" y="465" type="line"/>
			<point x="612" y="465" type="line"/>
			<point x="602" y="652" type="line"/>
			<point x="440" y="652" type="line"/>
			<point x="433" y="609" type="line"/>
			<point x="497" y="609" type="line"/>
			<point x="495" y="601" type="line"/>
			<point x="513" y="601" type="line"/>
		</contour>
		<contour>
			<point x="642" y="327" type="line"/>
			<point x="829" y="327" type="line"/>
			<point x="837" y="368" type="line"/>
			<point x="785" y="368" type="line"/>
			<point x="697" y="368" type="line"/>
			<point x="649" y="368" type="line"/>
		</contour>
		<contour>
			<point x="681" y="327" type="line"/>
			<point x="794" y="327" type="line"/>
			<point x="846" y="652" type="line"/>
			<point x="738" y="652" type="line"/>
			<point x="730" y="609" type="line"/>
		</contour>
		<contour>
			<point x="813" y="609" type="line"/>
			<point x="822" y="609" type="line"/>
			<point x="874" y="609" type="line"/>
			<point x="881" y="652" type="line"/>
			<point x="820" y="652" type="line"/>
		</contour>
	</outline>
</glyph>
<glyph name="estimated" format="2">
	<unicode hex="212E"/>
	<advance width="800"/>
	<outline>
		<contour>
			<point x="206" y="334" type="line" smooth="yes"/>
			<point x="204" y="334"/>
			<point x="202" y="336"/>
			<point x="202" y="340" type="curve" smooth="yes"/>
			<point x="202" y="520" type="line" smooth="yes"/>
			<point x="202" y="528"/>
			<point x="206" y="536"/>
			<point x="210" y="542" type="curve" smooth="yes"/>
			<point x="266" y="602"/>
			<point x="342" y="640"/>
			<point x="428" y="640" type="curve" smooth="yes"/>
			<point x="510" y="640"/>
			<point x="585" y="605"/>
			<point x="642" y="546" type="curve" smooth="yes"/>
			<point x="648" y="540"/>
			<point x="652" y="532"/>
			<point x="652" y="524" type="curve" smooth="yes"/>
			<point x="652" y="340" type="line" smooth="yes"/>
			<point x="652" y="336"/>
			<point x="650" y="334"/>
			<point x="646" y="334" type="curve" smooth="yes"/>
		</contour>
		<contour>
			<point x="426" y="-12" type="curve" smooth="yes"/>
			<point x="540" y="-12"/>
			<point x="642" y="40"/>
			<point x="708" y="120" type="curve"/>
			<point x="656" y="120" type="line"/>
			<point x="600" y="52"/>
			<point x="518" y="8"/>
			<point x="428" y="8" type="curve" smooth="yes"/>
			<point x="342" y="8"/>
			<point x="264" y="46"/>
			<point x="210" y="108" type="curve" smooth="yes"/>
			<point x="206" y="114"/>
			<point x="202" y="120"/>
			<point x="202" y="128" type="curve" smooth="yes"/>
			<point x="202" y="312" type="line" smooth="yes"/>
			<point x="202" y="314"/>
			<point x="204" y="316"/>
			<point x="206" y="316" type="curve" smooth="yes"/>
			<point x="780" y="316" type="line"/>
			<point x="780" y="318"/>
			<point x="780" y="322"/>
			<point x="780" y="324" type="curve" smooth="yes"/>
			<point x="780" y="510"/>
			<point x="622" y="660"/>
			<point x="426" y="660" type="curve" smooth="yes"/>
			<point x="230" y="660"/>
			<point x="72" y="510"/>
			<point x="72" y="324" type="curve" smooth="yes"/>
			<point x="72" y="138"/>
			<point x="230" y="-12"/>
		</contour>
	</outline>
</glyph>
<glyph name="bulletoperator" format="2">
	<unicode hex="2219"/>
	<advance width="316"/>
	<outline>
		<contour>
			<point x="187" y="227" type="curve" smooth="yes"/>
			<point x="245" y="227"/>
			<point x="289" y="273"/>
			<point x="289" y="335" type="curve" smooth="yes"/>
			<point x="289" y="397"/>
			<point x="245" y="443"/>
			<point x="187" y="443" type="curve" smooth="yes"/>
			<point x="128" y="443"/>
			<point x="84" y="397"/>
			<point x="84" y="335" type="curve" smooth="yes"/>
			<point x="84" y="273"/>
			<point x="128" y="227"/>
		</contour>
	</outline>
</glyph>
<glyph name="lessequal" format="2">
	<unicode hex="2264"/>
	<advance width="600"/>
	<outline>
		<contour>
			<point x="564" y="0" type="line"/>
			<point x="564" y="108" type="line"/>
			<point x="74" y="108" type="line"/>
			<point x="74" y="0" type="line"/>
		</contour>
		<contour>
			<point x="80" y="324" type="line"/>
			<point x="516" y="156" type="line"/>
			<point x="560" y="260" type="line"/>
			<point x="128" y="400" type="line"/>
			<point x="128" y="336" type="line"/>
			<point x="560" y="476" type="line"/>
			<point x="516" y="580" type="line"/>
			<point x="80" y="412" type="line"/>
		</contour>
	</outline>
</glyph>
<glyph name="fisheye" format="2">
	<unicode hex="25C9"/>
	<advance width="500"/>
	<outline>
		<contour>
			<point x="275" y="196" type="curve" smooth="yes"/>
			<point x="351" y="196"/>
			<point x="401" y="247"/>
			<point x="401" y="320" type="curve" smooth="yes"/>
			<point x="401" y="393"/>
			<point x="347" y="444"/>
			<point x="275" y="444" type="curve" smooth="yes"/>
			<point x="203" y="444"/>
			<point x="149" y="393"/>
			<point x="149" y="320" type="curve" smooth="yes"/>
			<point x="149" y="247"/>
			<point x="203" y="196"/>
		</contour>
		<contour>
			<point x="275" y="145" type="curve" smooth="yes"/>
			<point x="173" y="145"/>
			<point x="101" y="217"/>
			<point x="101" y="320" type="curve" smooth="yes"/>
			<point x="101" y="423"/>
			<point x="173" y="495"/>
			<point x="275" y="495" type="curve" smooth="yes"/>
			<point x="375" y="495"/>
			<point x="449" y="423"/>
			<point x="449" y="320" type="curve" smooth="yes"/>
			<point x="449" y="217"/>
			<point x="377" y="145"/>
		</contour>
		<contour>
			<point x="275" y="100" type="curve" smooth="yes"/>
			<point x="405" y="100"/>
			<point x="497" y="194"/>
			<point x="497" y="320" type="curve" smooth="yes"/>
			<point x="497" y="447"/>
			<point x="405" y="540"/>
			<point x="275" y="540" type="curve" smooth="yes"/>
			<point x="145" y="540"/>
			<point x="53" y="447"/>
			<point x="53" y="320" type="curve" smooth="yes"/>
			<point x="53" y="194"/>
			<point x="145" y="100"/>
		</contour>
	</outline>
</glyph>
<glyph name="twoemdash" format="2">
	<unicode hex="2E3A"/>
	<advance width="1590"/>
	<outline>
		<contour>
			<point x="60" y="222" type="line"/>
			<point x="1564" y="222" type="line"/>
			<point x="1564" y="342" type="line"/>
			<point x="60" y="342" type="line"/>
		</contour>
	</outline>
</glyph>
<glyph name="bracketleft.sups" format="2">
	<advance width="261"/>
	<outline>
		<contour>
			<point x="93" y="307" type="line"/>
			<point x="197" y="307" type="line"/>
			<point x="307" y="899" type="line"/>
			<point x="203" y="899" type="line"/>
		</contour>
		<contour>
			<point x="142" y="307" type="line"/>
			<point x="263" y="307" type="line"/>
			<point x="274" y="367" type="line"/>
			<point x="169" y="367" type="line"/>
			<point x="153" y="367" type="line"/>
		</contour>
		<contour>
			<point x="241" y="839" type="line"/>
			<point x="258" y="839" type="line"/>
			<point x="362" y="839" type="line"/>
			<point x="373" y="899" type="line"/>
			<point x="253" y="899" type="line"/>
		</contour>
	</outline>
</glyph>
<glyph name="bracketright.sups" format="2">
	<advance width="261"/>
	<outline>
		<contour>
			<point x="66" y="307" type="line"/>
			<point x="187" y="307" type="line"/>
			<point x="198" y="367" type="line"/>
			<point x="182" y="367" type="line"/>
			<point x="77" y="367" type="line"/>
		</contour>
		<contour>
			<point x="132" y="307" type="line"/>
			<point x="236" y="307" type="line"/>
			<point x="346" y="899" type="line"/>
			<point x="242" y="899" type="line"/>
		</contour>
		<contour>
			<point x="165" y="839" type="line"/>
			<point x="270" y="839" type="line"/>
			<point x="286" y="839" type="line"/>
			<point x="297" y="899" type="line"/>
			<point x="176" y="899" type="line"/>
		</contour>
	</outline>
</glyph>
<glyph name="breveacute" format="2">
	<outline>
		<contour>
			<point x="81" y="572" type="curve" smooth="yes"/>
			<point x="193" y="572"/>
			<point x="249" y="656"/>
			<point x="265" y="728" type="curve"/>
			<point x="201" y="744" type="line"/>
			<point x="177" y="696"/>
			<point x="145" y="664"/>
			<point x="89" y="664" type="curve" smooth="yes"/>
			<point x="33" y="664"/>
			<point x="1" y="696"/>
			<point x="-15" y="744" type="curve"/>
			<point x="-79" y="728" type="line"/>
			<point x="-71" y="640"/>
			<point x="-23" y="572"/>
		</contour>
		<contour>
			<point x="97" y="712" type="line"/>
			<point x="181" y="788" type="line" smooth="yes"/>
			<point x="211" y="816"/>
			<point x="225" y="836"/>
			<point x="225" y="868" type="curve" smooth="yes"/>
			<point x="225" y="900"/>
			<point x="199" y="920"/>
			<point x="167" y="920" type="curve" smooth="yes"/>
			<point x="135" y="920"/>
			<point x="113" y="898"/>
			<point x="89" y="848" type="curve" smooth="yes"/>
			<point x="41" y="748" type="line"/>
		</contour>
	</outline>
	<anchor name="_aboveLC" x="71" y="536"/>
</glyph>
<glyph name="brevecmb.cap" format="2">
	<outline>
		<contour>
			<point x="152" y="710" type="curve" smooth="yes"/>
			<point x="256" y="710"/>
			<point x="312" y="770"/>
			<point x="336" y="842" type="curve"/>
			<point x="280" y="866" type="line"/>
			<point x="248" y="826"/>
			<point x="216" y="802"/>
			<point x="160" y="802" type="curve" smooth="yes"/>
			<point x="104" y="802"/>
			<point x="72" y="826"/>
			<point x="48" y="866" type="curve"/>
			<point x="-12" y="842" type="line"/>
			<point x="4" y="762"/>
			<point x="56" y="710"/>
		</contour>
	</outline>
	<anchor name="_aboveUC" x="143" y="672"/>
	<anchor name="aboveUC" x="181" y="866"/>
</glyph>
<glyph name="brevecmb.cyr" format="2">
	<outline>
		<contour>
			<point x="133" y="560" type="curve" smooth="yes"/>
			<point x="229" y="560"/>
			<point x="285" y="624"/>
			<point x="317" y="712" type="curve"/>
			<point x="261" y="736" type="line"/>
			<point x="229" y="672"/>
			<point x="197" y="632"/>
			<point x="117" y="632" type="curve" smooth="yes"/>
			<point x="77" y="632"/>
			<point x="53" y="636"/>
			<point x="29" y="640" type="curve"/>
			<point x="45" y="608" type="line"/>
			<point x="93" y="624"/>
			<point x="117" y="648"/>
			<point x="117" y="684" type="curve" smooth="yes"/>
			<point x="117" y="716"/>
			<point x="93" y="740"/>
			<point x="53" y="740" type="curve" smooth="yes"/>
			<point x="13" y="740"/>
			<point x="-11" y="712"/>
			<point x="-19" y="680" type="curve"/>
			<point x="-3" y="616"/>
			<point x="45" y="560"/>
		</contour>
	</outline>
	<anchor name="_aboveLC" x="115" y="536"/>
	<anchor name="aboveLC" x="165" y="740"/>
</glyph>
<glyph name="brevecmb.cyrcap" format="2">
	<outline>
		<contour>
			<point x="109" y="704" type="curve" smooth="yes"/>
			<point x="205" y="704"/>
			<point x="261" y="768"/>
			<point x="293" y="856" type="curve"/>
			<point x="237" y="880" type="line"/>
			<point x="205" y="816"/>
			<point x="173" y="776"/>
			<point x="93" y="776" type="curve" smooth="yes"/>
			<point x="53" y="776"/>
			<point x="29" y="780"/>
			<point x="5" y="784" type="curve"/>
			<point x="21" y="752" type="line"/>
			<point x="69" y="768"/>
			<point x="93" y="792"/>
			<point x="93" y="828" type="curve" smooth="yes"/>
			<point x="93" y="860"/>
			<point x="69" y="884"/>
			<point x="29" y="884" type="curve" smooth="yes"/>
			<point x="-11" y="884"/>
			<point x="-35" y="856"/>
			<point x="-43" y="824" type="curve"/>
			<point x="-27" y="760"/>
			<point x="21" y="704"/>
		</contour>
	</outline>
	<anchor name="_aboveUC" x="100" y="672"/>
	<anchor name="aboveUC" x="145" y="884"/>
</glyph>
<glyph name="brevehoi.cap" format="2">
	<outline>
		<contour>
			<point x="152" y="700" type="curve" smooth="yes"/>
			<point x="256" y="700"/>
			<point x="312" y="760"/>
			<point x="336" y="832" type="curve"/>
			<point x="280" y="856" type="line"/>
			<point x="248" y="816"/>
			<point x="216" y="792"/>
			<point x="160" y="792" type="curve" smooth="yes"/>
			<point x="104" y="792"/>
			<point x="72" y="816"/>
			<point x="48" y="856" type="curve"/>
			<point x="-12" y="832" type="line"/>
			<point x="4" y="752"/>
			<point x="56" y="700"/>
		</contour>
		<contour>
			<point x="136" y="832" type="line"/>
			<point x="216" y="848"/>
			<point x="264" y="880"/>
			<point x="264" y="943" type="curve" smooth="yes"/>
			<point x="264" y="1005"/>
			<point x="199" y="1024"/>
			<point x="114" y="1036" type="curve"/>
			<point x="96" y="952" type="line"/>
			<point x="160" y="948"/>
			<point x="176" y="940"/>
			<point x="176" y="922" type="curve" smooth="yes"/>
			<point x="176" y="902"/>
			<point x="164" y="892"/>
			<point x="124" y="884" type="curve"/>
		</contour>
	</outline>
	<anchor name="_aboveUC" x="143" y="672"/>
</glyph>
<glyph name="brevetilde" format="2">
	<outline>
		<contour>
			<point x="82" y="572" type="curve" smooth="yes"/>
			<point x="194" y="572"/>
			<point x="250" y="656"/>
			<point x="266" y="728" type="curve"/>
			<point x="202" y="744" type="line"/>
			<point x="178" y="696"/>
			<point x="146" y="664"/>
			<point x="90" y="664" type="curve" smooth="yes"/>
			<point x="34" y="664"/>
			<point x="2" y="696"/>
			<point x="-14" y="744" type="curve"/>
			<point x="-78" y="728" type="line"/>
			<point x="-70" y="640"/>
			<point x="-22" y="572"/>
		</contour>
		<contour>
			<point x="-26" y="772" type="line"/>
			<point x="-10" y="796"/>
			<point x="6" y="812"/>
			<point x="40" y="812" type="curve" smooth="yes"/>
			<point x="61" y="812"/>
			<point x="80" y="806"/>
			<point x="106" y="796" type="curve" smooth="yes"/>
			<point x="132" y="786"/>
			<point x="150" y="780"/>
			<point x="178" y="780" type="curve" smooth="yes"/>
			<point x="238" y="780"/>
			<point x="270" y="824"/>
			<point x="290" y="900" type="curve"/>
			<point x="242" y="916" type="line"/>
			<point x="226" y="892"/>
			<point x="210" y="876"/>
			<point x="176" y="876" type="curve" smooth="yes"/>
			<point x="155" y="876"/>
			<point x="136" y="882"/>
			<point x="110" y="892" type="curve" smooth="yes"/>
			<point x="84" y="902"/>
			<point x="66" y="908"/>
			<point x="38" y="908" type="curve" smooth="yes"/>
			<point x="-22" y="908"/>
			<point x="-54" y="864"/>
			<point x="-74" y="796" type="curve"/>
		</contour>
	</outline>
	<anchor name="_aboveLC" x="71" y="536"/>
</glyph>
<glyph name="caron.alt" format="2">
	<advance width="143"/>
	<outline>
		<contour>
			<point x="146" y="722" type="curve" smooth="yes"/>
			<point x="130" y="722"/>
			<point x="118" y="720"/>
			<point x="112" y="718" type="curve"/>
			<point x="62" y="487" type="line"/>
			<point x="124" y="487" type="line"/>
			<point x="166" y="566" type="line" smooth="yes"/>
			<point x="190" y="612"/>
			<point x="206" y="638"/>
			<point x="206" y="670" type="curve" smooth="yes"/>
			<point x="206" y="702"/>
			<point x="188" y="722"/>
		</contour>
	</outline>
</glyph>
<glyph name="caroncmb.cap" format="2">
	<outline>
		<contour>
			<point x="20" y="914" type="line"/>
			<point x="-30" y="880" type="line"/>
			<point x="76" y="706" type="line"/>
			<point x="160" y="706" type="line"/>
			<point x="322" y="872" type="line"/>
			<point x="284" y="914" type="line"/>
			<point x="84" y="782" type="line"/>
			<point x="160" y="782" type="line"/>
		</contour>
	</outline>
	<anchor name="_aboveUC" x="100" y="672"/>
	<anchor name="aboveUC" x="151" y="914"/>
</glyph>
<glyph name="circumflexcmb.cap" format="2">
	<outline>
		<contour>
			<point x="173" y="876" type="line"/>
			<point x="97" y="876" type="line"/>
			<point x="-71" y="730" type="line"/>
			<point x="-39" y="686" type="line"/>
			<point x="173" y="808" type="line"/>
			<point x="81" y="808" type="line"/>
			<point x="253" y="686" type="line"/>
			<point x="293" y="726" type="line"/>
		</contour>
	</outline>
	<anchor name="_aboveUC" x="100" y="672"/>
	<anchor name="aboveUC" x="143" y="876"/>
</glyph>
<glyph name="colon.sups" format="2">
	<advance width="245"/>
	<outline>
		<contour>
			<point x="177" y="407" type="curve" smooth="yes"/>
			<point x="221" y="407"/>
			<point x="255" y="440"/>
			<point x="255" y="484" type="curve" smooth="yes"/>
			<point x="255" y="519"/>
			<point x="230" y="544"/>
			<point x="189" y="544" type="curve" smooth="yes"/>
			<point x="145" y="544"/>
			<point x="111" y="511"/>
			<point x="111" y="467" type="curve" smooth="yes"/>
			<point x="111" y="432"/>
			<point x="136" y="407"/>
		</contour>
		<contour>
			<point x="227" y="624" type="curve" smooth="yes"/>
			<point x="270" y="624"/>
			<point x="304" y="657"/>
			<point x="304" y="701" type="curve" smooth="yes"/>
			<point x="304" y="737"/>
			<point x="279" y="762"/>
			<point x="238" y="762" type="curve" smooth="yes"/>
			<point x="194" y="762"/>
			<point x="160" y="729"/>
			<point x="160" y="685" type="curve" smooth="yes"/>
			<point x="160" y="649"/>
			<point x="186" y="624"/>
		</contour>
	</outline>
</glyph>
<glyph name="comma.sups" format="2">
	<advance width="229"/>
	<outline>
		<contour>
			<point x="92" y="296" type="line"/>
			<point x="180" y="323"/>
			<point x="242" y="378"/>
			<point x="242" y="471" type="curve" smooth="yes"/>
			<point x="242" y="493"/>
			<point x="238" y="515"/>
			<point x="230" y="528" type="curve"/>
			<point x="221" y="536"/>
			<point x="206" y="543"/>
			<point x="184" y="543" type="curve" smooth="yes"/>
			<point x="138" y="543"/>
			<point x="108" y="512"/>
			<point x="108" y="471" type="curve" smooth="yes"/>
			<point x="108" y="436"/>
			<point x="132" y="417"/>
			<point x="160" y="417" type="curve" smooth="yes"/>
			<point x="180" y="398" type="line"/>
			<point x="180" y="428" type="line"/>
			<point x="158" y="384"/>
			<point x="129" y="356"/>
			<point x="74" y="334" type="curve"/>
		</contour>
	</outline>
</glyph>
<glyph name="dieresisacute" format="2">
	<outline>
		<contour>
			<point x="-1" y="570" type="curve" smooth="yes"/>
			<point x="55" y="570"/>
			<point x="92" y="614"/>
			<point x="92" y="660" type="curve" smooth="yes"/>
			<point x="92" y="703"/>
			<point x="61" y="733"/>
			<point x="14" y="733" type="curve" smooth="yes"/>
			<point x="-43" y="733"/>
			<point x="-79" y="690"/>
			<point x="-79" y="643" type="curve" smooth="yes"/>
			<point x="-79" y="600"/>
			<point x="-48" y="570"/>
		</contour>
		<contour>
			<point x="148" y="708" type="line"/>
			<point x="232" y="784" type="line" smooth="yes"/>
			<point x="262" y="812"/>
			<point x="276" y="832"/>
			<point x="276" y="864" type="curve" smooth="yes"/>
			<point x="276" y="896"/>
			<point x="250" y="916"/>
			<point x="218" y="916" type="curve" smooth="yes"/>
			<point x="186" y="916"/>
			<point x="164" y="894"/>
			<point x="140" y="844" type="curve" smooth="yes"/>
			<point x="92" y="744" type="line"/>
		</contour>
		<contour>
			<point x="262" y="570" type="curve" smooth="yes"/>
			<point x="318" y="570"/>
			<point x="355" y="614"/>
			<point x="355" y="660" type="curve" smooth="yes"/>
			<point x="355" y="703"/>
			<point x="323" y="733"/>
			<point x="276" y="733" type="curve" smooth="yes"/>
			<point x="220" y="733"/>
			<point x="184" y="690"/>
			<point x="184" y="643" type="curve" smooth="yes"/>
			<point x="184" y="600"/>
			<point x="214" y="570"/>
		</contour>
	</outline>
	<anchor name="_aboveLC" x="115" y="536"/>
</glyph>
<glyph name="dieresiscaron.cap" format="2">
	<outline>
		<contour>
			<point x="-17" y="698" type="curve" smooth="yes"/>
			<point x="37" y="698"/>
			<point x="73" y="740"/>
			<point x="73" y="785" type="curve" smooth="yes"/>
			<point x="73" y="827"/>
			<point x="43" y="856"/>
			<point x="-3" y="856" type="curve" smooth="yes"/>
			<point x="-58" y="856"/>
			<point x="-93" y="814"/>
			<point x="-93" y="769" type="curve" smooth="yes"/>
			<point x="-93" y="727"/>
			<point x="-63" y="698"/>
		</contour>
		<contour>
			<point x="91" y="854" type="line"/>
			<point x="167" y="854" type="line"/>
			<point x="337" y="992" type="line"/>
			<point x="305" y="1036" type="line"/>
			<point x="91" y="922" type="line"/>
			<point x="183" y="922" type="line"/>
			<point x="13" y="1036" type="line"/>
			<point x="-27" y="996" type="line"/>
		</contour>
		<contour>
			<point x="245" y="698" type="curve" smooth="yes"/>
			<point x="299" y="698"/>
			<point x="335" y="740"/>
			<point x="335" y="785" type="curve" smooth="yes"/>
			<point x="335" y="827"/>
			<point x="304" y="856"/>
			<point x="258" y="856" type="curve" smooth="yes"/>
			<point x="204" y="856"/>
			<point x="169" y="814"/>
			<point x="169" y="769" type="curve" smooth="yes"/>
			<point x="169" y="727"/>
			<point x="199" y="698"/>
		</contour>
	</outline>
	<anchor name="_aboveUC" x="100" y="672"/>
</glyph>
<glyph name="dieresiscmb.cap" format="2">
	<outline>
		<contour>
			<point x="36" y="708" type="curve" smooth="yes"/>
			<point x="92" y="708"/>
			<point x="129" y="752"/>
			<point x="129" y="798" type="curve" smooth="yes"/>
			<point x="129" y="841"/>
			<point x="97" y="871"/>
			<point x="50" y="871" type="curve" smooth="yes"/>
			<point x="-6" y="871"/>
			<point x="-42" y="828"/>
			<point x="-42" y="781" type="curve" smooth="yes"/>
			<point x="-42" y="738"/>
			<point x="-12" y="708"/>
		</contour>
		<contour>
			<point x="285" y="708" type="curve" smooth="yes"/>
			<point x="341" y="708"/>
			<point x="378" y="752"/>
			<point x="378" y="798" type="curve" smooth="yes"/>
			<point x="378" y="841"/>
			<point x="347" y="871"/>
			<point x="299" y="871" type="curve" smooth="yes"/>
			<point x="243" y="871"/>
			<point x="207" y="828"/>
			<point x="207" y="781" type="curve" smooth="yes"/>
			<point x="207" y="738"/>
			<point x="238" y="708"/>
		</contour>
	</outline>
	<anchor name="_aboveUC" x="143" y="672"/>
	<anchor name="aboveUC" x="191" y="871"/>
</glyph>
<glyph name="dieresistonoscmb" format="2">
	<outline>
		<contour>
			<point x="-75" y="605" type="curve" smooth="yes"/>
			<point x="-23" y="605"/>
			<point x="11" y="647"/>
			<point x="11" y="691" type="curve" smooth="yes"/>
			<point x="11" y="733"/>
			<point x="-17" y="761"/>
			<point x="-63" y="761" type="curve" smooth="yes"/>
			<point x="-115" y="761"/>
			<point x="-149" y="719"/>
			<point x="-149" y="675" type="curve" smooth="yes"/>
			<point x="-149" y="633"/>
			<point x="-121" y="605"/>
		</contour>
		<contour>
			<point x="109" y="559" type="line"/>
			<point x="130" y="594"/>
			<point x="152" y="628"/>
			<point x="173" y="663" type="curve" smooth="yes"/>
			<point x="193" y="695"/>
			<point x="205" y="719"/>
			<point x="205" y="751" type="curve" smooth="yes"/>
			<point x="205" y="783"/>
			<point x="179" y="811"/>
			<point x="133" y="811" type="curve" smooth="yes"/>
			<point x="87" y="811"/>
			<point x="49" y="783"/>
			<point x="49" y="713" type="curve" smooth="yes"/>
			<point x="49" y="664"/>
			<point x="49" y="616"/>
			<point x="49" y="567" type="curve"/>
		</contour>
		<contour>
			<point x="305" y="605" type="curve" smooth="yes"/>
			<point x="357" y="605"/>
			<point x="391" y="647"/>
			<point x="391" y="691" type="curve" smooth="yes"/>
			<point x="391" y="733"/>
			<point x="363" y="761"/>
			<point x="317" y="761" type="curve" smooth="yes"/>
			<point x="265" y="761"/>
			<point x="231" y="719"/>
			<point x="231" y="675" type="curve" smooth="yes"/>
			<point x="231" y="633"/>
			<point x="259" y="605"/>
		</contour>
	</outline>
	<anchor name="_aboveLC" x="71" y="536"/>
</glyph>
<glyph name="ef.bgr" format="2">
	<advance width="864"/>
	<outline>
		<contour>
			<point x="186" y="-220" type="line"/>
			<point x="536" y="-220" type="line"/>
			<point x="550" y="-144" type="line"/>
			<point x="406" y="-144" type="line"/>
			<point x="318" y="-144" type="line"/>
			<point x="200" y="-144" type="line"/>
		</contour>
		<contour>
			<point x="265" y="-220" type="line"/>
			<point x="424" y="-220" type="line"/>
			<point x="444" y="-129"/>
			<point x="456" y="-79"/>
			<point x="477" y="12" type="curve"/>
			<point x="475" y="12" type="line"/>
			<point x="581" y="502" type="line"/>
			<point x="581" y="506" type="line"/>
			<point x="630" y="710" type="line"/>
			<point x="573" y="720" type="line"/>
			<point x="350" y="682" type="line"/>
			<point x="336" y="614" type="line"/>
			<point x="492" y="594" type="line"/>
			<point x="448" y="618" type="line"/>
			<point x="439" y="580"/>
			<point x="430" y="541"/>
			<point x="421" y="503" type="curve" smooth="yes"/>
			<point x="422" y="503" type="line"/>
			<point x="318" y="15" type="line"/>
			<point x="321" y="15" type="line"/>
		</contour>
		<contour>
			<point x="311" y="42" type="line" smooth="yes"/>
			<point x="265" y="79"/>
			<point x="252" y="128"/>
			<point x="252" y="188" type="curve" smooth="yes"/>
			<point x="252" y="335"/>
			<point x="298" y="420"/>
			<point x="404" y="475" type="curve" smooth="yes"/>
			<point x="592" y="475" type="line" smooth="yes"/>
			<point x="637" y="440"/>
			<point x="660" y="389"/>
			<point x="660" y="328" type="curve" smooth="yes"/>
			<point x="660" y="174"/>
			<point x="613" y="94"/>
			<point x="497" y="42" type="curve" smooth="yes"/>
		</contour>
		<contour>
			<point x="412" y="-12" type="curve" smooth="yes"/>
			<point x="704" y="-12"/>
			<point x="848" y="136"/>
			<point x="848" y="304" type="curve" smooth="yes"/>
			<point x="848" y="456"/>
			<point x="728" y="528"/>
			<point x="500" y="528" type="curve" smooth="yes"/>
			<point x="208" y="528"/>
			<point x="64" y="380"/>
			<point x="64" y="212" type="curve" smooth="yes"/>
			<point x="64" y="60"/>
			<point x="184" y="-12"/>
		</contour>
	</outline>
</glyph>
<glyph name="emdash.sups" format="2">
	<advance width="592"/>
	<outline>
		<contour>
			<point x="132" y="554" type="line"/>
			<point x="656" y="554" type="line"/>
			<point x="656" y="636" type="line"/>
			<point x="132" y="636" type="line"/>
		</contour>
	</outline>
</glyph>
<glyph name="f_h" format="2">
	<advance width="1088"/>
	<outline>
		<contour>
			<point x="460" y="-16" type="line"/>
			<point x="608" y="0" type="line"/>
			<point x="626" y="84"/>
			<point x="645" y="168"/>
			<point x="663" y="252" type="curve" smooth="yes"/>
			<point x="688" y="368" type="line"/>
			<point x="673" y="368" type="line"/>
			<point x="752" y="710" type="line"/>
			<point x="698" y="720" type="line"/>
			<point x="562" y="694" type="line"/>
			<point x="547" y="626"/>
			<point x="519" y="492"/>
			<point x="504" y="424" type="curve" smooth="yes"/>
			<point x="412" y="0" type="line"/>
		</contour>
		<contour>
			<point x="880" y="-16" type="curve" smooth="yes"/>
			<point x="992" y="-16"/>
			<point x="1043" y="54"/>
			<point x="1081" y="118" type="curve"/>
			<point x="1032" y="148" type="line"/>
			<point x="1008" y="111"/>
			<point x="1000" y="96"/>
			<point x="980" y="96" type="curve" smooth="yes"/>
			<point x="964" y="96"/>
			<point x="957" y="106"/>
			<point x="957" y="122" type="curve" smooth="yes"/>
			<point x="957" y="136"/>
			<point x="962" y="160"/>
			<point x="968" y="184" type="curve" smooth="yes"/>
			<point x="1000" y="316" type="line" smooth="yes"/>
			<point x="1008" y="348"/>
			<point x="1016" y="380"/>
			<point x="1016" y="425" type="curve" smooth="yes"/>
			<point x="1016" y="487"/>
			<point x="979" y="532"/>
			<point x="906" y="532" type="curve" smooth="yes"/>
			<point x="816" y="532"/>
			<point x="750" y="480"/>
			<point x="696" y="400" type="curve"/>
			<point x="656" y="400" type="line"/>
			<point x="656" y="338" type="line"/>
			<point x="704" y="377"/>
			<point x="736" y="396"/>
			<point x="770" y="396" type="curve" smooth="yes"/>
			<point x="798" y="396"/>
			<point x="812" y="382"/>
			<point x="812" y="362" type="curve" smooth="yes"/>
			<point x="812" y="346"/>
			<point x="808" y="332"/>
			<point x="800" y="300" type="curve" smooth="yes"/>
			<point x="776" y="200" type="line" smooth="yes"/>
			<point x="768" y="168"/>
			<point x="757" y="131"/>
			<point x="757" y="87" type="curve" smooth="yes"/>
			<point x="757" y="27"/>
			<point x="786" y="-16"/>
		</contour>
		<component base="f.liga"/>
	</outline>
</glyph>
<glyph name="f_k" format="2">
	<advance width="1026"/>
	<outline>
		<contour>
			<point x="412" y="0" type="line"/>
			<point x="460" y="-16" type="line"/>
			<point x="608" y="0" type="line"/>
			<point x="622" y="63"/>
			<point x="639" y="125"/>
			<point x="652" y="188" type="curve" smooth="yes"/>
			<point x="762" y="710" type="line"/>
			<point x="698" y="720" type="line"/>
			<point x="561" y="694" type="line"/>
			<point x="545" y="620"/>
			<point x="516" y="480"/>
			<point x="500" y="406" type="curve" smooth="yes"/>
		</contour>
		<contour>
			<point x="993" y="0" type="curve"/>
			<point x="1001" y="56" type="line"/>
			<point x="980" y="58" type="line" smooth="yes"/>
			<point x="948" y="61"/>
			<point x="938" y="73"/>
			<point x="920" y="108" type="curve" smooth="yes"/>
			<point x="888" y="170" type="line" smooth="yes"/>
			<point x="852" y="240"/>
			<point x="800" y="253"/>
			<point x="708" y="260" type="curve" smooth="yes"/>
			<point x="667" y="263" type="line"/>
			<point x="667" y="278" type="line"/>
			<point x="888" y="340" type="line" smooth="yes"/>
			<point x="976" y="365"/>
			<point x="1016" y="396"/>
			<point x="1016" y="452" type="curve" smooth="yes"/>
			<point x="1016" y="500"/>
			<point x="976" y="524"/>
			<point x="936" y="532" type="curve"/>
			<point x="648" y="284" type="line"/>
			<point x="648" y="244" type="line"/>
			<point x="656" y="242" type="line" smooth="yes"/>
			<point x="672" y="238"/>
			<point x="683" y="230"/>
			<point x="692" y="198" type="curve" smooth="yes"/>
			<point x="716" y="116" type="line" smooth="yes"/>
			<point x="743" y="25"/>
			<point x="788" y="-16"/>
			<point x="884" y="-16" type="curve" smooth="yes"/>
			<point x="924" y="-16"/>
			<point x="969" y="-8"/>
		</contour>
		<component base="f.liga"/>
	</outline>
</glyph>
<glyph name="five.cap" format="2">
	<advance width="578"/>
	<outline>
		<contour>
			<point x="237" y="-16" type="curve" smooth="yes"/>
			<point x="445" y="-16"/>
			<point x="557" y="80"/>
			<point x="556" y="207" type="curve" smooth="yes"/>
			<point x="555" y="335"/>
			<point x="468" y="398"/>
			<point x="351" y="398" type="curve" smooth="yes"/>
			<point x="290" y="398"/>
			<point x="239" y="385"/>
			<point x="205" y="360" type="curve"/>
			<point x="189" y="368" type="line"/>
			<point x="260" y="616" type="line"/>
			<point x="209" y="514" type="line"/>
			<point x="563" y="514" type="line"/>
			<point x="593" y="652" type="line"/>
			<point x="204" y="652" type="line"/>
			<point x="112" y="319" type="line"/>
			<point x="158" y="295" type="line"/>
			<point x="176" y="307"/>
			<point x="202" y="318"/>
			<point x="242" y="318" type="curve" smooth="yes"/>
			<point x="313" y="318"/>
			<point x="346" y="275"/>
			<point x="346" y="192" type="curve" smooth="yes"/>
			<point x="346" y="105"/>
			<point x="292" y="48"/>
			<point x="198" y="48" type="curve" smooth="yes"/>
			<point x="171" y="48"/>
			<point x="154" y="53"/>
			<point x="136" y="57" type="curve"/>
			<point x="195" y="14" type="line"/>
			<point x="190" y="117" type="line" smooth="yes"/>
			<point x="187" y="181"/>
			<point x="154" y="201"/>
			<point x="113" y="201" type="curve" smooth="yes"/>
			<point x="66" y="201"/>
			<point x="46" y="180"/>
			<point x="34" y="138" type="curve"/>
			<point x="45" y="45"/>
			<point x="114" y="-16"/>
		</contour>
	</outline>
</glyph>
<glyph name="four.cap" format="2">
	<advance width="602"/>
	<outline>
		<contour>
			<point x="254" y="-10" type="line"/>
			<point x="438" y="-10" type="line"/>
			<point x="574" y="668" type="line"/>
			<point x="418" y="668" type="line"/>
			<point x="40" y="222" type="line"/>
			<point x="24" y="116" type="line"/>
			<point x="565" y="116" type="line"/>
			<point x="587" y="222" type="line"/>
			<point x="128" y="222" type="line"/>
			<point x="128" y="240" type="line"/>
			<point x="356" y="516" type="line"/>
			<point x="374" y="516" type="line"/>
			<point x="307" y="190" type="line"/>
			<point x="292" y="170" type="line"/>
		</contour>
	</outline>
</glyph>
<glyph name="period.sups" format="2">
	<advance width="229"/>
	<outline>
		<contour>
			<point x="177" y="407" type="curve" smooth="yes"/>
			<point x="221" y="407"/>
			<point x="255" y="440"/>
			<point x="255" y="484" type="curve" smooth="yes"/>
			<point x="255" y="519"/>
			<point x="230" y="544"/>
			<point x="189" y="544" type="curve" smooth="yes"/>
			<point x="145" y="544"/>
			<point x="111" y="511"/>
			<point x="111" y="467" type="curve" smooth="yes"/>
			<point x="111" y="432"/>
			<point x="136" y="407"/>
		</contour>
	</outline>
</glyph>
<glyph name="tildecmb.cap" format="2">
	<outline>
		<contour>
			<point x="-75" y="712" type="curve"/>
			<point x="-22" y="692" type="line"/>
			<point x="-5" y="724"/>
			<point x="15" y="740"/>
			<point x="40" y="740" type="curve" smooth="yes"/>
			<point x="64" y="740"/>
			<point x="83" y="728"/>
			<point x="104" y="716" type="curve" smooth="yes"/>
			<point x="125" y="704"/>
			<point x="147" y="692"/>
			<point x="179" y="692" type="curve" smooth="yes"/>
			<point x="242" y="692"/>
			<point x="287" y="740"/>
			<point x="319" y="840" type="curve"/>
			<point x="266" y="860" type="line"/>
			<point x="249" y="828"/>
			<point x="229" y="812"/>
			<point x="204" y="812" type="curve" smooth="yes"/>
			<point x="180" y="812"/>
			<point x="161" y="824"/>
			<point x="140" y="836" type="curve" smooth="yes"/>
			<point x="119" y="848"/>
			<point x="97" y="860"/>
			<point x="65" y="860" type="curve" smooth="yes"/>
			<point x="2" y="860"/>
			<point x="-43" y="812"/>
		</contour>
	</outline>
	<anchor name="_aboveUC" x="100" y="672"/>
	<anchor name="aboveUC" x="142" y="872"/>
</glyph>
<glyph name="tonoscmb" format="2">
	<outline>
		<contour>
			<point x="55" y="589" type="curve"/>
			<point x="107" y="565" type="line"/>
			<point x="140" y="598"/>
			<point x="168" y="622"/>
			<point x="201" y="655" type="curve" smooth="yes"/>
			<point x="229" y="683"/>
			<point x="245" y="705"/>
			<point x="245" y="743" type="curve" smooth="yes"/>
			<point x="245" y="781"/>
			<point x="217" y="807"/>
			<point x="175" y="807" type="curve" smooth="yes"/>
			<point x="133" y="807"/>
			<point x="109" y="783"/>
			<point x="89" y="719" type="curve" smooth="yes"/>
			<point x="74" y="672"/>
			<point x="65" y="636"/>
		</contour>
	</outline>
	<anchor name="_aboveLC" x="71" y="536"/>
</glyph>
<glyph name="two.lf" format="2">
	<advance width="568"/>
	<outline>
		<contour>
			<point x="22" y="0" type="line"/>
			<point x="492" y="0" type="line"/>
			<point x="522" y="140" type="line"/>
			<point x="168" y="140" type="line"/>
			<point x="168" y="165" type="line"/>
			<point x="159" y="150" type="line"/>
			<point x="276" y="205" type="line" smooth="yes"/>
			<point x="480" y="301"/>
			<point x="573" y="365"/>
			<point x="573" y="475" type="curve" smooth="yes"/>
			<point x="573" y="584"/>
			<point x="484" y="644"/>
			<point x="350" y="644" type="curve" smooth="yes"/>
			<point x="221" y="644"/>
			<point x="126" y="588"/>
			<point x="102" y="470" type="curve"/>
			<point x="111" y="425"/>
			<point x="138" y="401"/>
			<point x="182" y="401" type="curve" smooth="yes"/>
			<point x="226" y="401"/>
			<point x="258" y="424"/>
			<point x="260" y="480" type="curve" smooth="yes"/>
			<point x="264" y="616" type="line"/>
			<point x="225" y="574" type="line"/>
			<point x="241" y="578"/>
			<point x="257" y="580"/>
			<point x="275" y="580" type="curve" smooth="yes"/>
			<point x="328" y="580"/>
			<point x="381" y="553"/>
			<point x="381" y="464" type="curve" smooth="yes"/>
			<point x="381" y="387"/>
			<point x="313" y="313"/>
			<point x="176" y="211" type="curve" smooth="yes"/>
			<point x="45" y="113" type="line"/>
		</contour>
	</outline>
</glyph>
<glyph name="ze.bgr" format="2">
	<advance width="493"/>
	<outline>
		<contour>
			<point x="128" y="-232" type="curve" smooth="yes"/>
			<point x="303" y="-232"/>
			<point x="425" y="-144"/>
			<point x="425" y="0" type="curve" smooth="yes"/>
			<point x="425" y="120"/>
			<point x="321" y="156"/>
			<point x="191" y="156" type="curve"/>
			<point x="194" y="176" type="line"/>
			<point x="360" y="192"/>
			<point x="475" y="240"/>
			<point x="475" y="372" type="curve" smooth="yes"/>
			<point x="475" y="472"/>
			<point x="395" y="531"/>
			<point x="271" y="531" type="curve" smooth="yes"/>
			<point x="156" y="531"/>
			<point x="89" y="480"/>
			<point x="48" y="390" type="curve"/>
			<point x="99" y="364" type="line"/>
			<point x="128" y="412"/>
			<point x="160" y="435"/>
			<point x="210" y="435" type="curve" smooth="yes"/>
			<point x="270" y="435"/>
			<point x="304" y="400"/>
			<point x="304" y="336" type="curve" smooth="yes"/>
			<point x="304" y="264"/>
			<point x="253" y="196"/>
			<point x="126" y="196" type="curve" smooth="yes"/>
			<point x="102" y="196" type="line"/>
			<point x="89" y="132" type="line"/>
			<point x="111" y="132" type="line" smooth="yes"/>
			<point x="206" y="132"/>
			<point x="245" y="96"/>
			<point x="245" y="8" type="curve" smooth="yes"/>
			<point x="245" y="-104"/>
			<point x="181" y="-176"/>
			<point x="91" y="-176" type="curve" smooth="yes"/>
			<point x="51" y="-176"/>
			<point x="11" y="-172"/>
			<point x="-5" y="-168" type="curve"/>
			<point x="92" y="-200" type="line"/>
			<point x="82" y="-124" type="line" smooth="yes"/>
			<point x="72" y="-52"/>
			<point x="44" y="-28"/>
			<point x="0" y="-28" type="curve" smooth="yes"/>
			<point x="-44" y="-28"/>
			<point x="-64" y="-60"/>
			<point x="-71" y="-92" type="curve"/>
			<point x="-56" y="-169"/>
			<point x="-8" y="-232"/>
		</contour>
	</outline>
	<anchor name="aboveLC" x="286" y="536"/>
</glyph>
<glyph name="zero.lf" format="2">
	<advance width="620"/>
	<outline>
		<contour>
			<point x="270" y="-16" type="curve" smooth="yes"/>
			<point x="517" y="-16"/>
			<point x="616" y="240"/>
			<point x="616" y="420" type="curve" smooth="yes"/>
			<point x="616" y="568"/>
			<point x="534" y="644"/>
			<point x="398" y="644" type="curve" smooth="yes"/>
			<point x="151" y="644"/>
			<point x="52" y="388"/>
			<point x="52" y="208" type="curve" smooth="yes"/>
			<point x="52" y="60"/>
			<point x="135" y="-16"/>
		</contour>
		<contour>
			<point x="287" y="56" type="curve" smooth="yes"/>
			<point x="249" y="56"/>
			<point x="238" y="93"/>
			<point x="238" y="165" type="curve" smooth="yes"/>
			<point x="238" y="309"/>
			<point x="289" y="572"/>
			<point x="381" y="572" type="curve" smooth="yes"/>
			<point x="419" y="572"/>
			<point x="430" y="535"/>
			<point x="430" y="463" type="curve" smooth="yes"/>
			<point x="430" y="319"/>
			<point x="379" y="56"/>
		</contour>
	</outline>
</glyph>
